<?xml version="1.0" encoding="UTF-8"?>
<svg class="raiju-logo" xmlns="http://www.w3.org/2000/svg" viewBox="0 0 1024 1024">
  <defs>
     <style>
      .raiju-logo {
        fill: #212121;
      }
      @media (prefers-color-scheme: dark) {
        .raiju-logo {
          fill: white;
        }
      }
    </style>
  </defs>
  <path d="M442.83,452.97c-52.82,55.37-85.97,114.85-78.82,191.66,16.9-23.78,32.03-46.99,49.16-68.63,18.96-23.94,40.86-45.14,68.41-59.56,28.29-14.81,43.62-11.53,64.06,12.08,29.58,34.15,61.21,66.12,104.78,82.41,33.21,12.41,64.41,8.53,94.62-14.04-6.23-6.69-11.52-12.44-16.89-18.12-11.8-12.49-19.08-26.66-17.58-44.48,1.4-16.61,7.28-23.94,23.83-25.09,17.41-1.21,34.95-.88,52.43-.79,11.33.06,14.24,8.74,14.31,17.49.15,18.45-.89,36.92-1.55,55.37-.14,3.98-.93,7.94-1.07,11.92-1.24,34.9-16.11,53.68-50.21,62.29-32.07,8.1-64.57,7.03-96.7,1.25-13.46-2.42-23.31,1.03-32.67,9.52-23.09,20.94-34.93,48.33-43.23,77.37-18.86,66.04-22.48,133.66-19.01,201.83,1.31,25.78,3.69,51.5,5.57,77.15-75.56,13.88-182.79-77.17-219.22-183.36-6.25,19.61-12.5,39.22-19.72,61.86-83.38-75.66-99.65-173.53-98.64-280.68-11.53,17.93-23.05,35.86-35.28,54.86-11.31-13.57-16.53-30.54-18.6-48.69-7.67-67.19,10.42-128.59,43.19-186.31,18.91-33.29,43.8-61.69,73.41-86.17,5.15-4.26,9.03-12.89,9.36-19.7,3.23-67,9.81-133.47,30.84-197.57,15.53-47.33,35.37-92.42,76.22-124.38,4.29-3.36,9.11-6.07,13.82-8.85C419.63,2.45,421.95,1.87,426.75,0c-27.5,42.28-41.57,86.51-46.84,133.42-2.16,19.26-2.01,38.89-1.37,58.3.51,15.65,8.7,22.92,26.31,25.07,9.36,1.15,19-.04,28.42.79,5.54.49,10.91,2.88,16.36,4.42-2.27,4.78-3.59,10.42-6.98,14.2-18.65,20.81-39.39,39.96-56.35,62.02-17.15,22.3-30.8,47.29-45.77,71.25-1.43,2.29-1.28,5.57-2.31,10.56,36.4-15.42,70.53-36.31,112.02-19.42-63.37,31.46-105.24,76.92-116.54,146.76,33.21-22.21,62.71-50.47,109.13-54.42Z"/>
  <path d="M668.26,388.99c-.13-.07-.98-.58-1.69-1.04-.67-.4-1.19-.72-2.23-1.35-2.08-1.17-4.24-2.48-6.77-2.67-.61-.15-1.23,0-1.86,0-.62.03-1.24.06-1.83.27-1.21.33-2.38.72-3.43,1.04-1.1.29-2.21.28-3.09-.22-.89-.52-1.59-1.45-2.29-2.39-1.02-1.45-2.21-2.94-3.68-4.12-4.8-22.13-8.84-46.5-26.44-70.47,1.55,12.11,2.75,21.52,3.89,30.41-.1-.23-.19-.46-.29-.69-.62-1.47-1.23-3-1.99-4.51-.75-1.5-1.61-3.07-3.03-4.36-1.23-1.06-2.15-2.03-2.92-3.34-.8-1.29-1.28-2.76-2.36-4.34-.55-.79-1.46-1.52-2.46-1.78-.49-.17-.96-.2-1.42-.23-.43-.03-.54.02-.84.03-.44.03-1.13.19-1.39-.3-.08-.51.22-.97.4-1.45.14-.33.59-1.33.69-2.25.16-.96-.13-2.15-.86-2.88-.35-.37-.74-.65-1.14-.88-.32-.19-.64-.4-.96-.59-.56-.43-1.03-.93-1.29-1.54-.43-1.31-.23-2.2-.19-3.17.11-1.12.11-2.56.04-2.75-.14-1.45-.86-2.38-.94-2.31-.09.06.38,1.17.25,2.33.04.19-.25,1.67-.46,2.52-.14.91-.51,1.95.02,3.85.34.92.99,1.64,1.67,2.23.36.25.72.48,1.07.72.29.18.56.4.75.61.39.46.5.99.39,1.63-.12.68-.35,1.18-.89,2.29-.46,1-.86,1.92-.61,2.84.18.49.65.74,1.08.88.43.14.93.18,1.45.2.51,0,1.2-.04,1.58-.01.35.04.69.08.96.2.55.19.96.52,1.33,1.07.72,1.11,1.24,2.75,2.07,4.26.79,1.51,2.06,2.97,3.23,4.06.95.91,1.67,2.25,2.28,3.65.64,1.4,1.16,2.89,1.73,4.42.56,1.46,1.12,2.96,1.88,4.43-4.4-3.48-7.29-7.58-10.35-11.54-8.6-11.1-19.24-19.25-33.91-18.83-15.91.45-31.87,1.36-47.64,3.37-3.92.5-6.87,1.45-8.82,2.78-.12-.11-.24-.22-.37-.33-3.76-3.5-8.67-5.45-13.22-6.86-2.23-.75-4.45-1.51-6-2.9-1.51-1.38-2.21-3.49-2.34-5.79-.04-2.2-.03-4.7-.14-7.21.04-1.26-.3-2.47-.63-3.68-.37-1.22-.48-2.5-1.15-3.57-1.94-4.73-5.8-8.06-9.33-11.32-1.87-1.6-2.79-2.4-3.97-3.43-1.33-1.06-2.83-2.4-3.04-2.59-1.49-1.35-2.67-2.43-2.75-2.35-.07.07,1.11,1.47,2.3,2.81.17.24,1.75,1.98,2.68,2.88,1.08,1.01,2.1,1.96,3.9,3.67,3.42,3.3,6.99,6.64,8.65,11,.61,1.01.66,2.22.97,3.3.28,1.13.57,2.25.46,3.43.06,2.29,0,4.62-.01,7.22.03,2.47.79,5.34,2.83,7.3,2.05,1.92,4.52,2.75,6.76,3.59,4.57,1.57,8.81,3.4,12.08,6.61.1.09.19.18.29.27-1.83,2.96-.39,7.01,4.56,11.68,6.24,5.9,12.5,11.75,19.03,17.1-3.05-.3-5.96-.7-8.67-1.67-.61-.22-1.2-.45-1.81-.68-.84-.37-1.69-.61-2.51-.73-1.65-.24-3.17-.14-4.67.02-2.95.36-5.71,1.1-8.43,1.82-2.71.73-5.38,1.56-8,2.09-1.31.26-2.68.44-3.25.32-.38-.06-.78-.26-.92-.62-.12-.15-.1-.38-.16-.56-.03-.27,0-.22-.09-.77-.18-1.79-1.47-3.51-2.73-4.3-.62-.55-1.28-.86-1.91-1.24-.6-.34-1.19-.68-1.78-1.04-2.08-1.2-3.5-3.52-4.42-5.95-.91-2.47-1.4-5.16-1.4-7.82.02-1.28.11-2.69.59-3.63.35-.64.67-1.35.88-2.13.22-.73.32-1.74.08-2.56-.1-.25-.19-.49-.28-.71-.13-.19-.29-.35-.42-.51-.26-.31-.46-.53-.58-.61-1.55-1.26-2.24-2-3.05-2.85-1.36-1.36-2.5-3.31-2.58-3.62-.49-.99-.61-1.99-.58-2.69.07-.73.27-1.14.2-1.18-.08-.04-.41.38-.65,1.21-.18.8-.13,1.95.2,2.98,0,.39,1.23,3.01,2.23,4.18.71.93,1.54,1.89,3.08,3.25.1.12.61.45.71,1.09.25.96-.27,2.09-.9,3.26-.82,1.57-.87,3.05-.97,4.5-.07,2.95.34,5.84,1.27,8.64.97,2.75,2.5,5.58,5.22,7.34.61.38,1.22.76,1.82,1.14.55.34,1.16.64,1.56,1.07,1.07.77,1.49,1.54,1.62,2.53-.08,1.59.7,4.06,2.78,4.43.89.27,2.12.26,2.79.21.77-.05,1.51-.16,2.23-.29,2.86-.51,5.57-1.26,8.27-1.89,2.68-.64,5.37-1.24,7.98-1.47,1.28-.1,2.58-.12,3.68.09.56.09,1.05.27,1.48.47.69.29,1.39.58,2.09.87,5.59,2.15,11.34,2.26,16.52,3.1,15.3,11.32,32.42,19.32,54.29,18.72,13.86-.38,27.87,4.48,42.58,7.09,0,0,0,0,0,0,.78.78,1.5,1.67,2.2,2.6.74.93,1.51,1.97,2.73,2.65,1.24.66,2.71.58,3.88.22,1.23-.41,2.32-.79,3.41-1.11.54-.23,1.11-.26,1.69-.3.56-.02,1.14-.18,1.71-.05,2.31.11,4.43,1.29,6.52,2.4,1.08.59,1.68.92,2.33,1.28.56.3,1.63.78,1.77.83.82.36,1.66.7,1.68.66.02-.05-.66-.44-1.53-.94Z"/>
  <path d="M439.37,66.63c4.62,12.63,10.59,24.95,13.59,37.95,6.47,28.06,12.6,34.04,41.04,35.2,1.99.08,4.43-.53,5.9.39,3.8,2.39,8.55,4.86,10.15,8.51.8,1.82-3.9,7.13-7.15,9.35-3.56,2.43-8.21,3.66-12.56,4.44-15.17,2.73-26.22,10.45-34.5,23.73-2.82,4.53-10.66,8.96-15.54,8.33-5.01-.65-12.19-6.87-13.3-11.81-7.98-35.51-6.05-71.23.88-106.73.59-3.02,3.56-5.58,5.42-8.36,2.02-.34,4.05-.67,6.07-1.01Z"/>
  <path d="M848.19,247.97c-2.29-3.48-4.78-6.84-6.83-10.44-12.37-21.69-28.99-38.91-50.89-51.38-21.7-12.36-22.98-30.51-.75-41.37,22.5-10.99,38.8-25.08,47.22-48.62,1.22-3.42,5.62-5.72,8.54-8.53,1.43.65,2.86,1.29,4.29,1.94-4.28,26.03-12.25,52.12-11.79,78.07.46,26.3,9.24,52.45,14.38,78.66-1.39.56-2.77,1.11-4.16,1.67Z"/>
  <path d="M698.77,112.69c12.96-12.23,27.01-23.6,38.74-37,17.87-20.41,35.36-40.73,62.92-48.02,6.44-1.71,13.26-1.99,21.25-3.12-16.52,23.63-31.03,46.02-47.21,67.14-23.2,30.28-45.77,35.22-75.7,21Z"/>
  <path d="M854.76,310.76c-.24-.66-.52-.96-.59-.91-.05.05.13.36.23.97.07.58.04,1.45-.27,2.37-.04.27-.8,2.12-1.76,3.51-.58.86-1.06,1.61-2.18,2.94-.09.09-.23.31-.41.62-.09.16-.2.32-.29.51-.05.21-.11.42-.17.65-.13.74.01,1.58.23,2.16.22.63.51,1.17.82,1.65.43.71.59,1.89.69,2.97.18,2.26-.03,4.62-.58,6.86-.56,2.22-1.51,4.43-3.04,5.8-.44.4-.87.79-1.31,1.19-.47.43-.96.81-1.4,1.38-.92.88-1.81,2.57-1.83,4.11-.03.48-.01.43-.02.67-.03.17,0,.35-.09.5-.09.34-.39.57-.68.69-.43.21-1.51.29-2.54.29-2.07,0-4.19-.24-6.33-.39-2.15-.14-4.34-.29-6.64-.09-1.17.12-2.36.3-3.61.79-.63.24-1.27.6-1.9,1.05-.46.3-.9.6-1.36.89-3.6,2.28-7.83,3.18-12.2,4.8,3.04-5.96,4.94-13.13,5.34-21.88.1-.1.21-.19.31-.29,3.27-3.21,7.51-5.05,12.08-6.61,2.24-.84,4.72-1.67,6.76-3.59,2.03-1.96,2.8-4.83,2.83-7.3-.02-2.6-.07-4.93-.01-7.22-.1-1.17.18-2.3.46-3.43.31-1.09.36-2.3.97-3.3,1.65-4.36,5.22-7.7,8.65-11,1.8-1.71,2.81-2.65,3.9-3.67.92-.89,2.51-2.63,2.68-2.88,1.19-1.34,2.37-2.74,2.3-2.81-.08-.08-1.26,1-2.75,2.35-.21.2-1.71,1.53-3.04,2.59-1.18,1.03-2.11,1.83-3.97,3.43-3.52,3.25-7.38,6.59-9.33,11.32-.67,1.07-.78,2.35-1.15,3.57-.33,1.21-.67,2.42-.63,3.68-.11,2.52-.1,5.01-.14,7.21-.12,2.29-.82,4.4-2.34,5.79-1.55,1.39-3.77,2.15-6,2.9-4.45,1.38-9.25,3.29-12.98,6.65-21.52-3.91-39.11,4.04-55.06,19.12,0,0,0,0,0,0,.66-1.9.92-3.76,1.18-5.57.19-1.39.34-2.73.61-4.03.25-1.29.59-2.55,1.21-3.49.77-1.14,1.55-2.6,1.92-4.01.41-1.42.53-2.89.92-3.95.2-.53.48-.88.9-1.14.2-.15.48-.25.76-.35.3-.09.88-.19,1.3-.29.43-.11.84-.24,1.16-.44.33-.2.67-.49.73-.94.03-.82-.47-1.51-1.03-2.26-.66-.83-.94-1.21-1.16-1.75-.21-.51-.21-.97.02-1.44.11-.22.29-.45.5-.66.25-.27.5-.53.75-.8.46-.62.86-1.34.97-2.18.09-1.7-.41-2.49-.69-3.23-.32-.67-.84-1.86-.84-2.02-.32-.94-.14-1.96-.22-2-.08-.04-.5.87-.35,2.11-.02.17.24,1.37.55,2.29.21.8.54,1.51.43,2.69-.1.55-.4,1.06-.78,1.53-.23.23-.45.46-.68.68-.29.27-.56.57-.78.95-.46.75-.49,1.81-.18,2.57.25.76.81,1.5.98,1.75.23.36.57.69.6,1.13-.12.46-.72.46-1.09.51-.24.05-.35.03-.69.14-.37.12-.75.23-1.13.46-.77.41-1.39,1.19-1.7,1.96-.6,1.53-.72,2.85-1.15,4.07-.4,1.24-.98,2.23-1.8,3.35-.94,1.35-1.36,2.82-1.7,4.22-.34,1.41-.56,2.8-.81,4.15-.42,2.45-.97,5.01-2.16,6.67-1.63-6.25-2.94-11.25-4.57-17.49-10.7,20.34-9.09,38.67-.28,57.1-.64,1.03-1.12,2.16-1.49,3.24-.31.83-.63,1.66-1.17,2.22-.54.55-1.34.79-2.21.81-.83-.01-1.77-.05-2.72-.04-.48-.03-.94.08-1.4.19-.46.12-.95.15-1.36.39-1.81.67-3.11,2.08-4.39,3.37-.63.68-.94,1.02-1.35,1.45-.42.49-.94,1.03-1.02,1.11-.53.54-.95.97-.92,1.01.02.03.57-.4,1.09-.83.09-.06.77-.64,1.12-.97.4-.4.76-.77,1.43-1.42,1.29-1.25,2.59-2.55,4.26-3.12.39-.22.84-.22,1.26-.32.43-.09.86-.18,1.3-.13.86,0,1.74.06,2.72.1.93.02,2.02-.23,2.79-.97.75-.75,1.1-1.67,1.44-2.5.33-.88.7-1.72,1.14-2.49,0,.02.01.03.02.05,21-8.03,43.52-13.81,55.55-30.58.1-.04.2-.06.29-.11.46-.2.93-.4,1.1-.5.52-.27,1.03-.54,1.54-.8,4.26-1.95,9.23-2.94,13.88-6.03.52-.37,1.05-.74,1.56-1.1.32-.25.69-.48,1.12-.65.84-.37,1.84-.57,2.84-.71,2.03-.26,4.15-.21,6.27-.13,2.12.07,4.27.23,6.52.17.57-.02,1.14-.05,1.75-.14.52-.07,1.48-.28,2.15-.66,1.58-.67,2.03-2.89,1.86-4.23.03-.86.31-1.59,1.09-2.42.29-.44.74-.79,1.14-1.18.44-.42.89-.85,1.34-1.28,1.99-1.96,2.99-4.62,3.56-7.12.54-2.53.67-5.05.42-7.53-.17-1.22-.31-2.45-1.04-3.65-.56-.88-1.04-1.75-.91-2.6.04-.55.41-.93.48-1.04,1.11-1.41,1.69-2.37,2.17-3.28.7-1.16,1.48-3.59,1.46-3.92.19-.93.15-1.91-.04-2.55Z"/>
</svg>
