<svg xmlns="http://www.w3.org/2000/svg" viewBox="0 0 252 220.66">
    <path
        d="M252,0c-4.54,22.68-58.15,20.62-58.15,20.62H58.15S4.54,22.68,0,0C0,0,16.91,16.23,65.58,16.23H186.42C235.09,16.23,252,0,252,0ZM185.26,18H66.74C19,18,2.43,5.07,2.43,5.07c4.45,22.24,57,20.22,57,20.22H192.54s52.58,2,57-20.22C249.57,5.07,233,18,185.26,18ZM228.13,70.6H23.87V83.14H228.13Zm-150-6.48H45.81V70.6H78.17Zm128,0H173.83V70.6h32.36ZM192.54,25.29H59.46c-36,0-49.35-9.3-49.35-9.3,5.67,31.15,26.5,27.1,26.5,27.1H216s20.22,4,25.89-27.1C241.89,16,228.54,25.29,192.54,25.29ZM59.46,28H192.54c31.56,0,45.71-7.15,48.72-8.92.22-1,.43-2,.63-3,0,0-13.35,9.3-49.35,9.3H59.46c-36,0-49.35-9.3-49.35-9.3q.3,1.59.63,3.06C13.76,20.81,27.91,28,59.46,28Zm9.2,15.13H55.31L52.08,220.66H71.9ZM52.08,220.66H71.9L71.5,199h-19ZM196.69,43.09H183.34L180.1,220.66h19.82ZM180.1,220.66h19.82L199.53,199h-19ZM55.31,43.09l-.1,5.67H68.76l-.1-5.67Zm128,0-.1,5.67h13.55l-.1-5.67ZM68.76,70.6V83.14h4.71V70.6Zm128,0V83.14h4.7V70.6Zm-147.06,0V83.14h4.7V70.6Zm128,0V83.14h4.7V70.6Z" />
</svg>