<svg xmlns="http://www.w3.org/2000/svg" viewBox="0 0 880 880">
    <path fill="white"
        d="M560.76,795.65c13.37-7.74,26.73-15.49,40.8-23.65-19.86-36.32-17.37-69.44,14.05-96.54,27.09-23.38,57.21-22.88,90.11-4.28,13.53-26,27-51.94,40.7-78.33-30.1-19-45.14-43.85-39.74-77.88s27.07-53.28,62.13-61.88c-5.4-29-10.73-57.63-16.09-86.38-35.16,4.37-61.83-5.49-79.1-34.16-17.74-29.44-13.71-58.17,7.65-87.31l-67.52-55.9C566,244,482.33,214.18,480.33,144.23c-27.47-4.36-55-3.75-82.54,0-2.18.3-5,4.88-5.4,7.75-4.84,37.59-28.29,62.7-65.21,67.56-25.59,3.36-46.76-6.58-64.6-26-25.46,15.28-47,34.89-67.46,57.08,20.25,26.66,25.36,55.2,8.35,85.09-16.83,29.58-43.72,39.82-79.06,36.09-5,28.94-9.81,57.4-14.78,86.5,34.74,7.92,57,26.5,63.16,60.33s-7.95,59.22-38.32,79l41.71,78c37.55-22.63,70.63-17.7,100.12,10.08,20.24,19.07,22.21,54.86,5.88,88.83l40.74,23.06-.79,2c-13.69-4.48-27.33-9.12-41.12-13.31-2.81-.85-7.65-1.29-9,.28-12.48,14.42-29.54,18.13-47,20.49-18.12,2.45-33.79-4.58-48.1-15-27.24-19.84-36.17-55.82-23.84-84,3.06-7,1.64-11.15-2.86-16.37-21-24.29-37.4-51.46-50.91-80.54-1.53-3.29-5.93-6.64-9.51-7.35-30.81-6.1-53.32-27.41-59.16-56.85C24.31,515,36.45,487,63.82,469c3.08-2,6.09-6.64,6.25-10.19A411.35,411.35,0,0,1,87.14,357.68c1-3.11-.36-8.08-2.45-10.76-20-25.72-22.74-56.2-7-83.53,15.36-26.66,43.72-39.93,74.9-35.64A13.72,13.72,0,0,0,163.05,224a402,402,0,0,1,78.13-66.54c2.77-1.81,5-6.43,5.2-9.85,1.46-32.59,18.55-57.73,47.06-68.29,29.68-11,58.39-3.65,81.42,20.32,2.4,2.49,7.11,4.56,10.39,4.14a411.85,411.85,0,0,1,103.65-.71c3.27.4,7.84-3.11,10.55-6,18.83-20,41.71-28.46,68.62-23,28.47,5.78,47.53,23,56.22,51,1,3.29,2.42,6.87,2,10.12-1.75,14.13,7.7,19.56,17.34,27,23,17.72,44.57,37.19,66.4,56.32,4.13,3.63,7.06,5.81,13.28,4.75,30.53-5.18,59.17,8.35,74.49,34.21,16.14,27.23,13.87,57.82-5.59,83.68-2.18,2.9-3.28,8.32-2.19,11.71a401.27,401.27,0,0,1,18.4,99.82c.21,3.56,3.3,8.17,6.42,10.14,27.24,17.2,40.37,45.39,34.93,76.34-5.22,29.66-27,52-57.57,58.3-6.05,1.25-9.19,3.82-11.65,9.66a314.25,314.25,0,0,1-49,80.44c-3.9,4.64-5.09,8.35-2.44,14.63,11.73,27.82,7.56,53.92-12.27,76.5-25.78,29.37-63.6,30.14-88.68,16.15-6.31-3.52-12.32-7.64-18.87-10.62-2.5-1.15-6.32-.51-9.19.41-12.94,4.14-25.75,8.67-38.62,13.06C561.27,797,561,796.34,560.76,795.65ZM736,228.62c-37.22-.24-66.72,29-66.9,66.23a66.35,66.35,0,0,0,66.52,66.84c36.25.07,66.1-29.55,66.51-66A66.06,66.06,0,0,0,736,228.62ZM74.14,299.41c-.06,37.4,29.24,67,66.28,66.88,37.21-.09,66.89-29.7,66.77-66.64-.11-36.31-29.8-66.2-66.06-66.51A66.15,66.15,0,0,0,74.14,299.41Zm94,231.45c-.07-36.33-30.67-66.13-67.65-65.88-36.37.26-65.77,30.71-65.6,68,.16,36,31.29,65.88,68.21,65.48C138.68,598.05,168.24,567.34,168.18,530.86ZM319.32,80.78c-36.83-.24-66.39,29.44-66.45,66.72-.06,36.32,29.49,66.07,65.95,66.42S386,184.06,386,147.52C386.07,110.57,356.53,81,319.32,80.78ZM662,797.09c37.5.14,66.88-28.87,67-66.18.14-36.73-30-66.94-66.68-66.85s-65.87,29.08-66.22,66C595.72,767.54,624.62,797,662,797.09Zm-174-653c-.59,36.64,28.34,67.18,64.38,67.94,37.31.79,68.3-28.94,68.77-66,.46-35.79-28.86-66.51-64.16-67.2C518.73,78.11,488.52,106.68,487.92,144.1ZM777.27,592.81c37.05.08,67.65-29.69,67.71-65.89,0-36.81-30.14-67.49-66.3-67.36-37,.13-67.34,30.17-67.16,66.45S741.54,592.73,777.27,592.81ZM287.05,734.07c-.17-37.39-29.57-66.57-66.8-66.33C183.39,668,153.54,698.33,154,735a66.48,66.48,0,0,0,66.6,65.79C257.87,800.86,287.21,771.36,287.05,734.07Z" />
    <path fill="white"
        d="M723.83,330.05c16.57,14,34.1,14.15,52.84,6-13.7,14-30.28,20-49.3,16.86-18.21-3-33.61-10.89-40.07-30.13-5-15-.32-27.63,12.49-33.25,11.18-4.9,21.54-2.81,28.12,5.69,7,9,6.91,20.25-.15,29.76C726.58,326.59,725.32,328.14,723.83,330.05Z" />
    <path fill="white"
        d="M711.57,266.78C693.89,272.29,687.5,280.06,679,306c-8.92-30.54,15.31-66.63,46.73-69.63,19.74-1.88,35.9,14.62,31.8,32.38-2.33,10.12-8.09,16.67-18.69,18.11a24.13,24.13,0,0,1-24.63-13.55C713.24,271.14,712.45,268.92,711.57,266.78Z" />
    <path fill="white"
        d="M772.42,286.85c3.46-16.49,1.61-21.53-18.32-48.8,21.62,8.07,34.55,22,39.31,42.41,4,17.14,3.18,33.9-13.22,45.77-11.29,8.16-21.86,8.58-31.35.75-9.12-7.53-11.85-17.1-7.62-26.73a24.2,24.2,0,0,1,26.18-14.09C769.07,286.42,770.76,286.62,772.42,286.85Z" />
    <path fill="white"
        d="M182.94,340.68c-22.51,23.78-58.78,25.4-81.36,5.23-17.74-15.84-16.15-42.37,3-50.26,10.86-4.48,20.77-2.34,27.17,5.86a24.64,24.64,0,0,1,.67,29c-1.18,1.69-2.57,3.23-4.52,5.66C144.47,351.27,162.5,350,182.94,340.68Z" />
    <path fill="white"
        d="M115.38,272.29C96.72,280,85.83,292.84,82.65,313c-.63-3-1.62-6.06-1.82-9.13-1.79-26.59,16.72-52.64,42.33-59.8,20.62-5.76,40,8.17,38.7,27.8-.73,10.92-7.12,18.87-16.89,21-10,2.23-21.85-3.24-26.35-12.31C117.41,278.15,116.62,275.51,115.38,272.29Z" />
    <path fill="white"
        d="M176.59,293.1c3.7-16.13.36-24.82-17.82-47,21.33,3.77,39.36,27.7,40.33,52.48.64,16.45-5,29-19.73,37-10.59,5.74-19.8,4.43-28.41-3.84-7.49-7.2-10.18-15.45-5.6-25.31,4.76-10.25,14.58-15.3,26.35-13.64C173.35,293,175,293,176.59,293.1Z" />
    <path fill="white"
        d="M143,573.67c-14.57,15.35-33,20.7-53.52,16.39-17-3.56-30.92-12-36.48-30.16-4.84-15.83,1-28.78,15.41-33.49,11-3.58,19.67-1.1,25.82,7.37,6.33,8.71,6.43,19.13.21,28.09-1.18,1.69-2.59,3.23-3.88,4.81C101.28,580.46,118.8,582.59,143,573.67Z" />
    <path fill="white"
        d="M77.45,503.84c-18.51,7-28.53,20.31-32.31,41.39-7.61-33.22,14.29-66,44.6-70.78,19-3,36.15,11.69,34.31,29.3-1.16,11.08-7.71,18.73-17.52,20.48-11.28,2-21.89-3.4-26.47-13.55C79.21,508.8,78.58,506.83,77.45,503.84Z" />
    <path fill="white"
        d="M138.45,524.67c3.69-17.33-1.47-30.13-18.56-47.2.48-.76,1-1.52,1.43-2.28,7.58,5.18,16.1,9.39,22.55,15.72,15.16,14.89,20.35,33.49,15.64,54.28-2.86,12.58-12.09,20-23.65,24.11-8.49,3-16.36.33-22.87-6-7.11-6.9-9.82-14.88-6.07-24.47a23.86,23.86,0,0,1,22.65-15.12C132.3,523.81,135,524.29,138.45,524.67Z" />
    <path fill="white"
        d="M307,184.39c16.82,14.08,34.3,14,53.59,4.5C349,204,326.88,211,307,206.45c-18.74-4.26-33.17-13.5-37.63-33.77-2.84-12.86,1.83-23.26,12.87-28.54s21.54-3.4,28.26,4.76c7.59,9.22,7.14,21.42-1.16,32.12C308.69,181.83,308.16,182.71,307,184.39Z" />
    <path fill="white"
        d="M355.92,140.82c3.31-17.1,0-25.21-19.42-48,29.93,7.58,49.27,42.46,39.55,71.32-7.25,21.49-32.7,29.35-46.87,14.5-7.26-7.59-9.13-16-4.21-25.55,4.55-8.79,14.59-14.24,24-13.06,1.36.17,2.66.77,4,.95A14.08,14.08,0,0,0,355.92,140.82Z" />
    <path fill="white"
        d="M294.51,120.06c-19.17,8.13-29.82,21.34-31.6,41.73-12.23-30,17.86-73,49.36-71.4,17,.84,29.26,12.76,28.79,27.94-.37,12.07-6.9,20.43-17.62,22.54-10.47,2.07-21.92-4-26.36-14C296.25,125,295.64,123.08,294.51,120.06Z" />
    <path fill="white"
        d="M637.83,703.94c-18.91,7.25-29,20.74-31.43,40.61-9.26-22.54,5.39-53.62,30.34-65.67,12.34-6,24.4-7.21,36.4.68,10,6.6,13.92,17,10.59,28.88-2.73,9.73-9,15.28-19.26,16-11.58.77-19.83-4.83-24.59-16.5C639.38,706.7,638.68,705.58,637.83,703.94Z" />
    <path fill="white"
        d="M650.63,767.87c17.2,14,34.65,14,53.12,4.42-9.78,15.78-36.45,23.16-58.34,16.32-16.95-5.3-29.51-15-32.67-33.7-2.29-13.51,2.66-23,14.23-27.82s21.25-2.67,27.84,6.2c7.05,9.51,6.3,20.79-2.06,31.3C652.14,765.35,651.68,766.23,650.63,767.87Z" />
    <path fill="white"
        d="M700,724.38c3-20-5.6-34.77-20.81-48,31.38,6.82,51.78,45.85,39.82,73.31-8.71,20-32.11,26.55-45.75,12.87-7.06-7.09-9.69-15.37-5.23-24.58,4.34-9,11.46-14.7,22.11-14.44C693.15,723.63,696.19,724.05,700,724.38Z" />
    <path fill="white"
        d="M542.74,182.15c16.08,13.22,33.65,12.78,52.16,4.51-15.36,16-34.15,21.11-55.22,16.21-18.36-4.26-32.2-14.5-36.1-34.37-1.94-9.9.18-18.9,8.86-24.88,8-5.52,17-8.39,26.33-3.15,9.08,5.12,13,13.75,11.51,23.7C549.41,170,545.71,175.34,542.74,182.15Z" />
    <path fill="white"
        d="M591.31,136.48c2.27-19.27-6.28-33.77-20.75-46.46,20.67,3.92,37.57,23,41.64,46.08,3.42,19.46-3.14,35.12-18.33,43.76-13.27,7.54-28.22,2.78-35-11.17-5.27-10.79.38-25.08,12.86-29.81C577.25,136.78,583.78,137.31,591.31,136.48Z" />
    <path fill="white"
        d="M496.78,158.74c-8.3-32.26,14.18-66.53,44.68-71.14,19.89-3,37,12.77,34,31.24-1.75,10.51-8.38,17.41-18,18.7-10.79,1.46-20.77-3.41-25.17-12.43-1.19-2.45-2-5.1-3-7.63C510.66,124.11,502.08,134.74,496.78,158.74Z" />
    <path fill="white"
        d="M765.54,562.34c16.52,14.12,34,14.37,52.71,6-14.6,14.63-31.74,20.49-51.76,16.35C749,581.12,734.7,573,728.85,554.59c-4.69-14.78-.2-26.78,12.25-32.46,11.07-5.06,21.54-3.13,28.24,5.2,7.15,8.87,7.33,20.23.43,29.81C768.58,558.78,767.22,560.28,765.54,562.34Z" />
    <path fill="white"
        d="M792.9,470.17C825.44,479.48,844,513,835,542c-6.12,19.55-30.82,29-44.71,17.19-8.61-7.34-11.35-16.62-7.65-25.87a24.53,24.53,0,0,1,24.76-15.09c2,.17,4.08.66,7.18,1.17C818.25,499,809.36,484.16,792.9,470.17Z" />
    <path fill="white"
        d="M720.63,537.92c-6-32.5,12.52-61.46,43.1-68.62,14-3.28,30.21,5,34.74,17.77,4.36,12.29-1.19,26.31-12.12,30.63-12,4.74-25.42-1-30.91-13.23-.69-1.55-1.16-3.19-2.14-5.94C734.34,505.28,724.54,518.83,720.63,537.92Z" />
    <path fill="white"
        d="M263.39,774.85c-16.54,15.81-34.15,21.44-54.38,17.5-17.51-3.4-31.78-11.64-37.71-30-4.56-14.12-.43-26.14,11.15-32.13,10.72-5.55,21.39-4.16,28.53,3.72,7.7,8.5,8.26,20.71,1.33,30.57-1.14,1.63-2.48,3.14-3.66,4.63C221.21,782.57,234.67,784.12,263.39,774.85Z" />
    <path fill="white"
        d="M257.3,727c2.82-20.5-5.24-35.28-20.15-47.6,18.87,1.49,38.37,23.37,41.33,45.61,2.22,16.74.14,31.81-15.49,42.06-10.54,6.92-21.1,7.12-29.75.09-9.15-7.44-12-17.05-8-26.65,4.42-10.51,14.41-15.79,27.1-14.28C253.69,726.43,255,726.68,257.3,727Z" />
    <path fill="white"
        d="M195.54,706.31C176.39,713,166.82,727,163.27,747.56c-7.64-32.93,13.37-65.34,44.33-71.07,19.36-3.59,37.85,13,34.48,30.9-2.14,11.32-8.54,17.86-18.8,19.18a23.77,23.77,0,0,1-25.19-14.09C197.26,710.66,196.55,708.78,195.54,706.31Z" />
    <path fill="white"
        d="M571.72,416.39,597,411.54a9.73,9.73,0,0,1,7.37,1.32q6.71,4.44,13,9.38c2.5,2,2.62,4.48.45,6.65-5.17,5.18-7.39,11.57-8.76,18.61-1.91,9.83-4.37,19.56-6.71,29.31a14,14,0,0,1-4.14,7.6c-1.95,1.7-3,2.07-4.94.52a53.53,53.53,0,0,1-6.25-6.08,2.69,2.69,0,0,0-2.47-1.17c-4.28.37-8.57.67-13.08,1,0,.89,0,1.55,0,2.21-.17,15.66-.19,31.33-.59,47-.14,5.77-1.13,11.52-1.82,17.27a7.85,7.85,0,0,1-1.11,2.94c-1.24,2-3.25,2.24-4.44.18a15,15,0,0,1-2.19-6.25c-.7-11-1.32-22-1.55-33.06-.19-9.17.2-18.34.34-27.51v-1.82l-17,1.28a26.86,26.86,0,0,1-.63,4.09c-.65,2.25-2.58,2.81-4.32,1.23a18.69,18.69,0,0,1-3.05-3.74c-3.55-5.46-4.3-11.66-5-18-.94-8.35-2.3-16.66-3.88-24.92a39.28,39.28,0,0,0-6.71-15.3,2.48,2.48,0,0,1-.17-2.31,4.53,4.53,0,0,1,2.34-1.1,1.8,1.8,0,0,1,1.25.27c4.25,2.35,8.7,1.26,13,.65,7.71-1.1,15.38-2.45,23-3.76a1.62,1.62,0,0,0,1-1.2c0-8.8,0-17.6-.31-26.39-.18-4.53-2.53-8.27-5.89-11.33-1-.94-2.82-1.89-2-3.4.71-1.34,2.31-2.3,3.68-3.17a3.92,3.92,0,0,1,2.55-.23,36.34,36.34,0,0,1,15.42,6.33,7.6,7.6,0,0,1,2.53,2.68c.53,1.21,1,3.07.5,4-2.63,4.46-3.53,9.27-3.79,14.31C572.42,405.05,572.07,410.45,571.72,416.39Zm0,7.59v17.86c.87-.1,1.67-.21,2.47-.27a15.44,15.44,0,0,1,9.82,2.28c1.37.89,3.22,1.92,2.67,3.86s-2.63,1.74-4.28,1.88c-3,.26-6.09.54-9.13.7-1.37.07-1.79.58-1.77,1.94.07,5.55,0,11.1,0,16.65,0,.49.07,1,.12,1.59.59-.07,1.08-.1,1.55-.17,3.95-.62,7.9-1.19,11.88-.27,2.94.69,4.22,0,5.36-2.79a12.22,12.22,0,0,0,.76-2.5c2-11.15,4.07-22.3,5.83-33.49.85-5.4-3.62-9.69-9.06-9.22-2.3.2-4.6.39-6.89.67C578,423.07,574.93,423.53,571.71,424ZM560.2,472.69v-21c-2.93.27-5.58.5-8.24.77s-5,.24-7-1.7c-.58-.57-1.28-1.48-1.19-2.12s1.26-.91,2-1.27a6.09,6.09,0,0,1,1.44-.37c4.3-.93,8.6-1.84,12.77-2.73V425.39l-23.68,4.37c1.13,15.62,2.79,30.93,6.24,46Z" />
    <path fill="white"
        d="M305.85,536.13a35.14,35.14,0,0,1-1.07,3.85c-.77,1.88-2.27,2.34-3.92,1.19a9.67,9.67,0,0,1-2.52-2.46c-3.42-5-5.88-10.35-6.14-16.59A135.3,135.3,0,0,0,288,492.56a54,54,0,0,0-6.38-14.9,2.78,2.78,0,0,1-.2-2.47A3.3,3.3,0,0,1,284,474c10.57,2.3,21,.24,31.53-.6,14.79-1.19,29.57-2.54,44.34-3.95,6.51-.62,13-1.64,19.47-2.27a10.21,10.21,0,0,1,5.6.71c5.62,3.07,11,6.51,16.52,9.84a10.25,10.25,0,0,1,1.69,1.48c2.36,2.32,2.42,4.6.09,7-1.74,1.79-3.69,3.38-5.33,5.24-5.44,6.15-8.11,13.56-10,21.44-1.81,7.49-4.07,14.89-6.38,22.25a18.9,18.9,0,0,1-3.5,6.31c-3,3.51-6.67,2.71-8-1.67-.59-2-.55-4.11-.85-6.71Zm-6-52.56c.94,15.71,2.21,30.81,5.24,45.56l28.62-2.52V508.25l-13.26,1.08c-3.62.3-7.16.25-9.84-2.74a8,8,0,0,1-1-1.92,7.12,7.12,0,0,1,1.89-.83c6.8-.9,13.6-1.77,20.4-2.55,1.26-.15,1.7-.51,1.62-1.82-.2-3.23-.06-6.5-.41-9.71a56.52,56.52,0,0,0-1.65-7.79,2.21,2.21,0,0,0-2.83-1.7c-1.66.26-3.36.22-5,.42C315.81,481.62,308,482.59,299.87,483.57Zm44.93,15c5.14-.12,10-.41,14.93-.28a10.65,10.65,0,0,1,7.73,4.08c1.57,1.82,1.08,3.29-1.29,3.67-1.78.29-3.6.3-5.4.42l-16.49,1.11c-.38,6.13-.75,12-1.14,18.13l10.2-1.09c6.29-.67,12.61-1.89,18.8,1.05.18-.75.33-1.35.45-2,1.08-5.44,2.19-10.86,3.21-16.31,1.28-6.85,2.65-13.7,3.64-20.59.76-5.31-.84-7.58-6.09-8-6.18-.5-12.44-.38-18.66-.26-4.82.09-9.63.57-14.87.91,1.36,1.14,2.33,2,3.34,2.78,2.73,2.12,3.4,4.71,2.57,8.1A57.31,57.31,0,0,0,344.8,498.61Z" />
    <path fill="white"
        d="M333.19,410.69c-10.63,1.57-21,3.06-31.45,4.65-2.76.42-5.5,1.06-8.24,1.66a15.76,15.76,0,0,1-9.4-.66c-2.71,7.45-5.35,14.87-8.12,22.25-.81,2.15-2,4.17-3,6.24a7.49,7.49,0,0,1-.75,1.29c-1.23,1.57-2.4,3.38-4.74,3.15-2.16-.21-3-2-3.82-3.73a35.59,35.59,0,0,1-3.11-12.63,6.92,6.92,0,0,1,2.3-5.69c2.17-2.07,4.22-4.25,6.37-6.33,3.1-3,3.87-6.83,4-10.91a37.84,37.84,0,0,1,.14-4.65c.25-1.67,1.44-2.32,2.85-1.4a21.33,21.33,0,0,1,4.25,3.81,3.08,3.08,0,0,0,2.65,1.26,340.18,340.18,0,0,0,35.77-3.08c3.34-.42,6.7-.6,10.06-.89l4-.34a42.89,42.89,0,0,0-4.14-19.17l-9.4,1c-6.69.74-12.94-.45-18.45-4.45-1.11-.81-2.66-2.41-2.47-3.32.37-1.71,2.49-1.41,4-1.45,7.91-.25,15.84-.27,23.74-.69,12.18-.65,24.11-3,36-5.74a19.4,19.4,0,0,1,17.39,3.89c2.13,1.74,1.64,4.16-.94,5.22a9.94,9.94,0,0,1-2.5.72c-5.07.65-10.13,1.31-15.21,1.85-7.06.75-14.13,1.39-21.3,2.54.55.35,1.1.7,1.66,1,2.78,1.71,3.6,3.73,3.06,7-.57,3.41-1,6.84-1.55,10.57,3.2-.36,5.9-.72,8.61-1,10.13-.87,20.26-1.67,30.38-2.56,4.72-.42,9.45-.86,14.13-1.55a11.22,11.22,0,0,1,8.66,2.1c4.65,3.46,9.23,7,13.64,10.78a14.13,14.13,0,0,1,3.31,4.87c.95,2.1.12,3.62-2.16,4-2.82.45-5.7.45-8.55.77A45.59,45.59,0,0,0,391,427.68a3.35,3.35,0,0,1-2.82.11c-1.18-.6-.91-1.83-.48-3,1.41-3.79,2.85-7.57,4.1-11.41.91-2.79-.14-4.7-3.06-5a90.51,90.51,0,0,0-12.32-.25c-9.41.45-18.8,1.12-28.2,1.72-1.36.09-2.72.34-4.09.45-1.14.09-1.59.57-1.51,1.78.13,2.16.13,4.34.13,6.51,0,9.17-.11,18.34,0,27.5.09,6.11-1.76,11.66-4.26,17.07-1,2.09-3,2.35-4.31.54-3.12-4.21-5.05-8.89-4.37-14.27,1.07-8.54,2.41-17,3.29-25.59C333.55,419.78,333.19,415.58,333.19,410.69Z" />
    <path fill="white"
        d="M491.08,460.84c2,2.1,3.77,4.16,5.72,6.07a6.09,6.09,0,0,1,1.88,5.61c-1.66,10.11-.95,20.28-.84,30.44.07,6.05.42,12.11.08,18.13-.21,3.68-1.47,7.3-2.27,10.94a3.27,3.27,0,0,1-.22.51c-1.68,3.65-4.12,4.12-6.33.79-3.35-5-5.35-10.71-4.21-16.81a171,171,0,0,0,2.73-41c-.13-2.37-1.05-4.7-1.73-7.58l-2.15,2.56c-6.3,7.51-12.62,15-20.07,21.41a88.5,88.5,0,0,1-17.23,11.82c-1.05.55-3.33.93-3.47.63-.77-1.59,1.06-2,1.87-2.88,5.48-5.9,11.14-11.63,16.43-17.68,11.13-12.74,21.66-26,29.76-40.92,1.09-2,2.2-4.05,3.23-6.11a10,10,0,0,0,1.14-3.13c.12-1,.06-2.5-.55-3s-2.17-.41-3.07,0c-6.87,2.95-13.66,6.07-20.52,9a75.14,75.14,0,0,1-7.21,2.55,4.85,4.85,0,0,1-2.39.15,24.71,24.71,0,0,1-11.45-6,4.09,4.09,0,0,1-.94-3.12c.16-1.43,1.59-1.18,2.71-1.29,11.63-1.1,23.21-2.68,34-7.25,4.08-1.72,7.78-4.44,11.44-7,2.77-1.94,5.63-2.55,8.64-1.38a93.32,93.32,0,0,1,10.29,4.8c2.4,1.29,2.62,4,.69,6-1,1-2.11,1.75-3.15,2.64a61.64,61.64,0,0,0-12.45,14.85c-3,4.88-6.18,9.66-9.28,14.48C491.85,459.68,491.47,460.24,491.08,460.84Z" />
    <path fill="white"
        d="M515.19,389.17c-.39,2.53-.13,5-2.19,6.78-1.71,1.46-3.58,2-5.68,1-1.61-.8-3.43-1.45-4.69-2.66-5.19-5-10.24-10.16-15.26-15.34a6.84,6.84,0,0,1-1.33-2.84c-.84-2.92,0-4.23,3-3.89a63,63,0,0,1,10.89,2.43,38.11,38.11,0,0,1,8.21,3.49A14.08,14.08,0,0,1,515.19,389.17Z" />
    <path fill="white"
        d="M375.46,436.49a25.84,25.84,0,0,1-4-1.29c-5.17-2.6-10.29-5.3-15.41-8a7.68,7.68,0,0,1-2.75-1.88,5.61,5.61,0,0,1-1-3.36c0-.43,1.58-1.12,2.45-1.13,4.11-.05,8.22.06,12.33.2a14.29,14.29,0,0,1,3.48.62c5.21,1.51,7.53,5.16,8.61,10.69C379.58,434.66,378,436.24,375.46,436.49Z" />
    <path fill="white"
        d="M354,441.08c4.63.7,8.89,1,13,2,6.9,1.66,8.82,4.64,9.81,11.69.36,2.59-1.28,4.07-3.86,3.64a9.21,9.21,0,0,1-3.23-1.33c-4.76-3-9.48-6-14.2-9a9.72,9.72,0,0,1-3-2.21,6.15,6.15,0,0,1-1-3.72C351.54,441.71,353.28,441.37,354,441.08Z" />
    <path fill="white"
        d="M522.49,471.75c-.12,2.23,0,4.81-2.57,5.68-2.38.8-4.06-.85-5.55-2.58-3.73-4.35-7.56-8.61-11.24-13a9.12,9.12,0,0,1-1.94-3.88c-.32-1.62.69-2.45,2.22-2,5.68,1.75,11.16,4,15.85,7.72C521.8,465.74,522.54,468.6,522.49,471.75Z" />
    <path fill="white"
        d="M296.54,446.08c3.65.42,7.32.71,10.95,1.27,4.54.7,7,3.9,8.35,7.93.77,2.21-1.15,5-3.45,5.3a9.87,9.87,0,0,1-6.79-1.53c-3.86-2.41-7.64-4.95-11.44-7.45-.36-.23-.82-.53-.93-.89a8,8,0,0,1-.68-3.48c.08-.49,1.71-.74,2.67-1a4.7,4.7,0,0,1,1.3,0Z" />
    <path fill="white"
        d="M302.13,425.32c2.64.37,5.32.56,7.91,1.15a9.32,9.32,0,0,1,7.23,8.28c.29,2.8-2,5-4.61,4.21a84.26,84.26,0,0,1-9.69-3.74,49.2,49.2,0,0,1-6.11-3.57,6.82,6.82,0,0,1-2.1-2c-1.26-2-.64-3.16,1.74-3.62a11.27,11.27,0,0,1,1.3-.17l4.29-.26Z" />
</svg>
