<svg xmlns="http://www.w3.org/2000/svg" viewBox="0 0 194 262">
    <path fill="white"
        d="M80.93,117.28C68.66,130.15,61,144,62.61,161.81c3.93-5.52,7.45-10.91,11.43-15.94,4.4-5.56,9.49-10.49,15.89-13.84,6.57-3.44,10.13-2.68,14.89,2.81,6.87,7.93,14.22,15.36,24.34,19.15,7.72,2.88,15,2,22-3.27-1.45-1.55-2.68-2.89-3.93-4.21-2.74-2.9-4.43-6.19-4.08-10.33.32-3.86,1.69-5.56,5.53-5.83,4.05-.28,8.12-.21,12.18-.19,2.64,0,3.31,2,3.33,4.07,0,4.29-.21,8.58-.36,12.86,0,.93-.21,1.85-.25,2.77-.29,8.11-3.74,12.48-11.66,14.48-7.46,1.88-15,1.63-22.47.29a8.2,8.2,0,0,0-7.59,2.21c-5.37,4.86-8.12,11.23-10,18-4.38,15.35-5.22,31.06-4.41,46.9.3,6,.85,12,1.29,17.92C91.13,252.86,66.21,231.7,57.75,207c-1.46,4.56-2.91,9.11-4.58,14.38C33.79,203.83,30,181.09,30.25,156.19l-8.2,12.75c-2.63-3.16-3.84-7.1-4.32-11.32-1.78-15.61,2.42-29.87,10-43.28a72.12,72.12,0,0,1,17.05-20A7,7,0,0,0,47,89.74c.75-15.57,2.28-31,7.16-45.91,3.61-11,8.22-21.47,17.71-28.9a29.09,29.09,0,0,1,3.21-2A17.86,17.86,0,0,1,77.19,12,69.68,69.68,0,0,0,66.31,43,94.08,94.08,0,0,0,66,56.58c.12,3.64,2,5.33,6.11,5.83,2.18.27,4.42,0,6.61.18a22.1,22.1,0,0,1,3.8,1,13.88,13.88,0,0,1-1.62,3.3c-4.34,4.84-9.16,9.28-13.1,14.41s-7.16,11-10.63,16.56a9.13,9.13,0,0,0-.54,2.45c8.46-3.58,16.39-8.44,26-4.51-14.73,7.31-24.45,17.87-27.08,34.1C63.29,124.77,70.14,118.2,80.93,117.28Z" />
    <path fill="white"
        d="M133.31,102.42l-.4-.24-.52-.32a3.92,3.92,0,0,0-1.57-.62,2.06,2.06,0,0,0-.43,0,2,2,0,0,0-.43.06l-.79.24a.93.93,0,0,1-.72-.05,1.86,1.86,0,0,1-.53-.55,4.86,4.86,0,0,0-.86-1c-1.11-5.14-2-10.8-6.14-16.37.36,2.81.64,5,.9,7.06a1.11,1.11,0,0,0-.07-.16c-.14-.34-.28-.69-.46-1.05a3.29,3.29,0,0,0-.7-1,2.9,2.9,0,0,1-.68-.77c-.19-.3-.3-.65-.55-1a1.1,1.1,0,0,0-.57-.42,1.32,1.32,0,0,0-.33,0,.54.54,0,0,0-.19,0c-.11,0-.27,0-.33-.07a.61.61,0,0,1,.1-.34,2.51,2.51,0,0,0,.16-.52.86.86,0,0,0-.2-.67,1.31,1.31,0,0,0-.27-.21l-.22-.14a.91.91,0,0,1-.3-.35,1.75,1.75,0,0,1,0-.74,4.8,4.8,0,0,0,0-.64A.85.85,0,0,0,117,82a3.34,3.34,0,0,1,.06.55,5.75,5.75,0,0,1-.11.58,1.68,1.68,0,0,0,0,.9,1.32,1.32,0,0,0,.38.51l.25.17a.86.86,0,0,1,.18.14.46.46,0,0,1,.09.38,1.92,1.92,0,0,1-.21.54,1,1,0,0,0-.14.66.36.36,0,0,0,.25.2,1.63,1.63,0,0,0,.34,0h.36a.71.71,0,0,1,.22,0A.54.54,0,0,1,119,87c.17.25.29.64.48,1a3.88,3.88,0,0,0,.75.94,2.57,2.57,0,0,1,.53.85c.15.32.27.67.41,1a8.7,8.7,0,0,0,.44,1,13.81,13.81,0,0,1-2.41-2.65c-2-2.58-4.47-4.48-7.88-4.38-3.7.1-7.41.32-11.07.78a4.79,4.79,0,0,0-2,.65.3.3,0,0,1-.08-.08A8,8,0,0,0,95,84.5a3.91,3.91,0,0,1-1.39-.67,2,2,0,0,1-.54-1.35c0-.51,0-1.09,0-1.67a3.09,3.09,0,0,0-.14-.86,3.36,3.36,0,0,0-.27-.83,7.82,7.82,0,0,0-2.17-2.63l-.92-.8c-.31-.24-.66-.55-.71-.6a8.06,8.06,0,0,0-.63-.55,4,4,0,0,0,.53.66c0,.06.41.46.62.67l.91.85a7.68,7.68,0,0,1,2,2.55,3.06,3.06,0,0,1,.22.77,2.38,2.38,0,0,1,.11.8c0,.53,0,1.07,0,1.68a2.36,2.36,0,0,0,.65,1.69,4.41,4.41,0,0,0,1.58.84,7.2,7.2,0,0,1,2.8,1.53l.07.07c-.42.69-.09,1.62,1.06,2.71,1.45,1.37,2.91,2.73,4.43,4a8.22,8.22,0,0,1-2-.39l-.43-.15a1.82,1.82,0,0,0-.58-.17,3.9,3.9,0,0,0-1.08,0,14.76,14.76,0,0,0-2,.42c-.63.17-1.25.37-1.86.49a2.58,2.58,0,0,1-.76.07.26.26,0,0,1-.21-.14.33.33,0,0,1,0-.13c0-.06,0,0,0-.18a1.43,1.43,0,0,0-.63-1,2.85,2.85,0,0,0-.45-.29l-.41-.24a2.65,2.65,0,0,1-1-1.38,5.33,5.33,0,0,1-.33-1.82,2.18,2.18,0,0,1,.14-.84,2.28,2.28,0,0,0,.21-.5,1.17,1.17,0,0,0,0-.59c0-.06,0-.12-.07-.17l-.1-.12-.13-.14a6.17,6.17,0,0,1-.71-.66,3.35,3.35,0,0,1-.6-.84,1.34,1.34,0,0,1-.14-.63c0-.17.07-.26,0-.27s-.1.09-.15.28a1.38,1.38,0,0,0,0,.69,3.34,3.34,0,0,0,.52,1,4.69,4.69,0,0,0,.72.76.4.4,0,0,1,.16.25,1.13,1.13,0,0,1-.21.76,2.35,2.35,0,0,0-.22,1,5.93,5.93,0,0,0,.29,2,3.29,3.29,0,0,0,1.22,1.71l.42.26a1.64,1.64,0,0,1,.36.25.81.81,0,0,1,.38.59c0,.37.16.94.64,1a2.17,2.17,0,0,0,.65,0l.52-.07c.67-.12,1.29-.29,1.92-.44a12.46,12.46,0,0,1,1.85-.34,3.06,3.06,0,0,1,.86,0,1.13,1.13,0,0,1,.34.11l.49.2a18.66,18.66,0,0,0,3.86.73,19.55,19.55,0,0,0,12.59,4.34c3.23-.09,6.48,1,9.9,1.65a6,6,0,0,1,.51.6,2.19,2.19,0,0,0,.63.62,1.23,1.23,0,0,0,.9,0c.29-.1.54-.19.8-.26a1.23,1.23,0,0,1,.39-.07,1.33,1.33,0,0,1,.4,0,3.61,3.61,0,0,1,1.51.56l.54.29.41.19a2.49,2.49,0,0,0,.39.16A1.74,1.74,0,0,0,133.31,102.42Z" />
    <path fill="white"
        d="M80.12,27.52a73.68,73.68,0,0,1,3.16,8.82c1.51,6.52,2.93,7.91,9.54,8.18.46,0,1-.13,1.37.09.88.55,2,1.13,2.36,2,.18.42-.91,1.65-1.66,2.17a7.72,7.72,0,0,1-2.92,1,11.32,11.32,0,0,0-8,5.51,4.58,4.58,0,0,1-3.61,1.94,4.48,4.48,0,0,1-3.09-2.74c-1.86-8.25-1.41-16.55.2-24.8.14-.71.83-1.3,1.26-1.95Z" />
    <path fill="white"
        d="M175.11,69.65c-.53-.8-1.11-1.58-1.59-2.42A31.1,31.1,0,0,0,161.7,55.29c-5-2.87-5.34-7.09-.17-9.61s9-5.83,11-11.3c.28-.79,1.3-1.33,2-2l1,.45c-1,6-2.85,12.11-2.74,18.14s2.14,12.18,3.34,18.28Z" />
    <path fill="white"
        d="M140.39,38.22c3-2.84,6.28-5.48,9-8.59,4.15-4.75,8.21-9.47,14.61-11.16a45.78,45.78,0,0,1,4.94-.73c-3.84,5.49-7.21,10.7-11,15.6C152.59,40.38,147.35,41.53,140.39,38.22Z" />
    <path fill="white"
        d="M176.64,84.24c-.06-.15-.12-.22-.14-.21s0,.08.06.23a1.49,1.49,0,0,1-.07.55,3.24,3.24,0,0,1-.41.81,5.83,5.83,0,0,1-.5.69.73.73,0,0,0-.1.14l-.07.12a.83.83,0,0,1,0,.15,1,1,0,0,0,.06.5,1.35,1.35,0,0,0,.19.38,2,2,0,0,1,.16.69,5.08,5.08,0,0,1-.14,1.6,2.78,2.78,0,0,1-.7,1.35l-.31.27a2.42,2.42,0,0,0-.32.32,1.5,1.5,0,0,0-.43,1,.68.68,0,0,0,0,.15.5.5,0,0,1,0,.12.28.28,0,0,1-.16.16,1.74,1.74,0,0,1-.59.07c-.48,0-1-.06-1.47-.09a8.76,8.76,0,0,0-1.54,0,2.88,2.88,0,0,0-.84.18,2.46,2.46,0,0,0-.45.24,3.37,3.37,0,0,1-.31.21,15.25,15.25,0,0,1-2.85,1.13,12.13,12.13,0,0,0,1.24-5.08l.09-.08a7.06,7.06,0,0,1,2.81-1.54,4.59,4.59,0,0,0,1.57-.83,2.4,2.4,0,0,0,.65-1.7c0-.61,0-1.15,0-1.68a2.45,2.45,0,0,1,.11-.8,2.88,2.88,0,0,1,.22-.76,7.62,7.62,0,0,1,2-2.56l.91-.85c.21-.21.58-.61.62-.67a6.56,6.56,0,0,0,.54-.65,4.25,4.25,0,0,0-.64.54c-.05,0-.4.36-.71.61l-.92.8A7.78,7.78,0,0,0,172,82.31a3.36,3.36,0,0,0-.27.83,3.16,3.16,0,0,0-.14.86c0,.58,0,1.16,0,1.67A1.89,1.89,0,0,1,171,87a3.91,3.91,0,0,1-1.39.67,8.12,8.12,0,0,0-3,1.55c-5-.9-9.09.94-12.79,4.44h0a6.91,6.91,0,0,0,.27-1.29c.05-.33.08-.64.14-.94a2.23,2.23,0,0,1,.29-.81,3.47,3.47,0,0,0,.44-.93c.1-.33.12-.67.21-.92a.64.64,0,0,1,.21-.27l.18-.08.3-.06a1,1,0,0,0,.27-.11.28.28,0,0,0,.17-.21.88.88,0,0,0-.24-.53,1.73,1.73,0,0,1-.27-.4.37.37,0,0,1,0-.34.72.72,0,0,1,.11-.15l.18-.19a1.08,1.08,0,0,0,.22-.5,1.41,1.41,0,0,0-.16-.75,5,5,0,0,1-.19-.47,2,2,0,0,1-.06-.47.78.78,0,0,0-.08.49,3.39,3.39,0,0,0,.13.53,1.49,1.49,0,0,1,.1.63.77.77,0,0,1-.18.36l-.16.15a1.24,1.24,0,0,0-.18.22.7.7,0,0,0,0,.6,1.73,1.73,0,0,0,.23.41.66.66,0,0,1,.14.26c0,.11-.17.11-.26.12l-.16,0a1.83,1.83,0,0,0-.26.11,1,1,0,0,0-.4.46c-.14.35-.16.66-.26.94a2.82,2.82,0,0,1-.42.78,2.82,2.82,0,0,0-.4,1c-.08.33-.13.65-.18,1a3.94,3.94,0,0,1-.51,1.55c-.37-1.45-.68-2.62-1.06-4.06-2.48,4.73-2.1,9,0,13.28a3.88,3.88,0,0,0-.36.74,1.38,1.38,0,0,1-.27.51.69.69,0,0,1-.51.19h-.64a1.19,1.19,0,0,0-.32.05,1.17,1.17,0,0,0-.32.09,2.78,2.78,0,0,0-1,.78l-.32.34-.23.26a1.59,1.59,0,0,0-.22.23,1.65,1.65,0,0,0,.26-.19l.26-.23.33-.33a2.77,2.77,0,0,1,1-.72,1,1,0,0,1,.29-.08,1,1,0,0,1,.3,0l.63,0a.89.89,0,0,0,.65-.22,1.66,1.66,0,0,0,.34-.58,3.4,3.4,0,0,1,.26-.58h0c4.88-1.87,10.11-3.21,12.9-7.12H165a2.36,2.36,0,0,0,.26-.12,3.9,3.9,0,0,0,.35-.19,19.5,19.5,0,0,0,3.23-1.4l.36-.25a1.1,1.1,0,0,1,.26-.15,2.37,2.37,0,0,1,.66-.17,8.86,8.86,0,0,1,1.46,0c.49,0,1,0,1.51,0a2.83,2.83,0,0,0,.41,0,1.68,1.68,0,0,0,.5-.16,1,1,0,0,0,.43-1,.81.81,0,0,1,.25-.56,1.72,1.72,0,0,1,.27-.27l.31-.3a3.45,3.45,0,0,0,.83-1.65,5.81,5.81,0,0,0,.09-1.76,2,2,0,0,0-.24-.84,1,1,0,0,1-.21-.61.53.53,0,0,1,.11-.24,4.74,4.74,0,0,0,.51-.76,3.81,3.81,0,0,0,.34-.91A1.48,1.48,0,0,0,176.64,84.24Z" />
</svg>
