<svg xmlns="http://www.w3.org/2000/svg" fill="currentColor" viewBox="0 0 1024 1024">
    <path d="M982.46,686.16c-12.65,12.66-31.58,22.8-47.11,31.62l-.35,1.59c4.13,6.89,4.92,14.25.39,21.18-2.03,3.11-9.07,7.73-9.91,10.51-1.32,4.34,1.68,12.01.99,17.8-.43,3.6-2.43,6.2-3.25,9.6,11.4,11.02,31.69,13.89,46.91,12.43,5.76-.55,21.26-5.94,24.82-5.37,1.86.3,3.32,1.39,4.8,2.47,20.32,14.92,5.53,72.59-13.24,86.5,4.71,6.63,18.85,13.75,20.18,21.92,2.47,15.17-28.23,39.69-39.52,47.62-36.6,25.72-89.05,37.67-129.95,14.88-4.29-2.39-15.7-11.9-18.52-12.74-3.17-.95-14.74,1.45-20.18,1.01-12.25-.98-34.51-11.76-44.88-18.76-8.59-5.81-24.36-19.66-23.75-30.94.27-4.94,4.57-7.34,5.62-11.56-20.23-9.6-47.17-44.79-44.32-67.76,2.48-19.97,21.41-15.41,36.16-17.87,11.16-1.86,23.93-6.28,33.74-11.89,4.3-2.46,24.12-16.19,23.46-20.57-5.53-6.26-6.87-13.64-5.84-21.86.82-6.55,7.66-14.16,8.41-20.5.54-4.6-1.97-8.05-2.33-12.05-.22-2.39,1.13-4.31,1.06-5.93s-15.65-17.41-18.42-21.02c-24.37-31.78-44.01-85.15-42.72-125.36.84-26.25,4.96-38.21-3.27-65.2-23.6-77.36-86.29-136.55-161.8-162.41-54.4-18.63-83.87-16.04-135.56,8.62-56.57,26.98-108.42,82.02-123.86,143.91-7.4,29.65.53,48.12-.6,76.25-1.6,39.66-19.01,95.24-44.45,126.06-2.4,2.91-16.1,15.51-16.58,17.01-.31.97-2.72,19.14-2.58,20.15.81,6.23,9.48,14.79,9.68,25.33.16,8.44-3.75,11.99-6.64,18.63,18.1,20.77,41.85,28.52,68.4,32.39,3.31.48,6.87-.3,10.51.3,7.92,1.31,13.48,7.98,14.15,15.86,2.06,24.27-22.85,57.85-44.48,67.93.84,4.51,5.65,6.29,6.1,11.38,1.9,21.7-48.06,46.49-66.08,49.3-7.14,1.12-17.98-1.4-21.96-.43-4.53,1.1-21.12,14.33-29.31,17.61-49.21,19.66-122.79-5.84-152.22-49.17-13.81-20.33-3.3-26.15,12.55-38.98l-.28-2.76c-5.18-2.34-9.21-7.97-11.63-12.94-8.51-17.56-17.14-52.07-4.28-68.83,7.95-10.36,14.86-3.49,24.48-1.81,15.49,2.71,30.69,2.25,45.31-4.05,16.89-7.28,6.8-6.65,6.35-18.89-.18-4.73,2.91-11.5,1.38-15.58-1.43-3.82-5.3-4.55-7.87-7.84-5.43-6.94-6.18-17.45-.78-24.57-53.64-24.7-81.65-66.27-87.53-124.87-11.43-113.96,31.38-217.5,84.61-315.22C179.88,106.84,385.82,27.66,574.87,60.13c64.55,11.08,126.23,29.34,180.24,67.12,11.88,8.3,23.28,19.44,35.01,27.43,14.98,10.2,32.51,18.35,47.84,29.01,85.67,59.57,131.51,141.6,162.95,239.31,24.24,75.33,43.46,201.2-18.45,263.17ZM281.63,368.98c-.74,4.59,0,12.34,0,17.41,0,.3,3.52.62,5.43,2.37,6.35,5.82-2.28,21.86-1.93,29.95l-15.53,1.92,16.84,64.22,1.81-1.18c2.32-49.4,13.6-98.06,35.42-142.39l-.09-1.63c-3.61-1.93-15.96-5.03-14.93-9.8,10.52-20.55,19.1-42.29,32.05-61.51,8.43-12.51,19.02-23.31,28.37-35.06,0-3.01-16.02-8.82-14.18-14.99,2.33-2.24,21.04,11.14,20.26,15.93-8.59,10.74-18,20.5-26.04,31.72-13.87,19.34-26.01,41.33-34.77,63.47.25,1.63,10.7,6.52,12.79,5.21,18.56-39.15,45.08-75.75,76.98-104.92-6.61-4.5-37.47-42.31-41.47-42.69-1.7-.16-2.34.44-3.61,1.2-4.42,2.67-18.48,18.85-21.99,23.68-.9,1.24-1.2,3.82-1.38,3.99-.56.56-3.12.44-2.33-1.73,3.26-8.98,20.04-25.82,27.54-32.51,13.67-12.19,30.51-23.57,46.85-31.82l-8.4-17.99c3.22-3.12,12.49,12.08,13.79,14.39,79.49-43.01,174.38-52.18,262.61-34.43,10.28,2.07,20.7,4.62,30.71,7.71,14.48,4.48,27.9,11.34,42.31,15.92-42.15-28.98-91.37-51.25-142.89-56.42l1.24,12.4c-.27,1.13-2.31,1.54-3.34,1.71-5.92.96-19.76-1.15-27.37-.96-18.66.48-40.08,2.54-58.62,5.02-21.77,2.92-43.44,7.29-63.89,15.41-1.58.13-2-.87-2.78-1.91-5.52-7.34-7.55-22.6-12.28-29.77-.84-1.28-.94-1.6-2.58-1.65-4.77-.16-17.41,3.5-22.76,4.89-15.69,4.05-33.38,10.15-48.2,16.64-7.06,3.1-22.06,12.82-28.08,14.04-1.38.28-2.66.53-3.92-.35-2.19-1.83-3.12-9.21-6.37-8.91l-54.2,29.86-1.85-3.57c10.86-5.91,20.81-13.41,31.61-19.44,9.4-5.25,29.42-20.33,33.33-3.46l1.47-.09c32.36-16.02,66.94-31.41,103.29-34.71l5.76,11.91c34.78-8.55,70.32-18.31,106.71-17.87,2.03-1.53-.14-2.18-1.79-2.39-91.22-11.44-188.61,5.26-271.22,44.59-15.6,7.43-31.17,15.48-45.18,25.65,4.68,2.66,20.27,20.79,23.45,21.07,5.77.51,37.22-29.74,41.36-25.27l-.26,3.37-40.2,28.87c-4.75.68-22.05-22.31-26.82-24.48-1.3-.59-2.28-.76-3.59-.09-54.5,35.4-99.52,81.26-130.28,138.8-34.33,64.22-54.16,138.62-42.3,211.66,1.89,11.64,5.73,23,8.09,34.53-6.03-7.48-9.26-20.3-11.66-29.76-2.9-11.43-5.39-23.02-5.31-34.91l-13.04-1.38,1.39-4.61,10.62-.18c.07-16.92.3-34.21,2.41-51.03,1.45-11.53,4.84-22.56,6.97-33.88.44-2.32-.16-1.52-2.16-1.55-8.06,24.19-18.21,47.88-25.55,72.32-4.1,13.65-9.95,33.41-11.62,47.24-.29,2.42-.05,1.47,1.7,1.71,7.23,1,14.95-2.6,22.24-2.4l-.14,4.05-1.83,1.77-23.38,3.27c-2.63,19.84-6.25,42.35-4.64,62.33,3.73,46.48,41.37,119.51,82.47,143.28,13.01,7.52,17.1,7.67,30.04-.67,1.18-.76,2.14.13,1.55-2.69-9.62-.39-20.32-7.64-27.63-13.8-24.98-21.05-40.9-49.87-52.84-79.86-4.13-1.18-2.36,6.29-1.85,8.47,1.5,6.38,12.59,31.41,16.07,37.96,8.67,16.3,22.63,28.57,36.22,40.63-4.76.39-10.35-4.82-13.83-7.78-19.6-16.66-25.61-33.44-35.15-56.11-2.94-7-9.23-12.21-7.43-21.33.64-3.24,4.22-4.44,4.38-6.01s-7.66-25.49-8.65-30.61c-3.45-17.95-4.28-37.22-1.75-55.27,4.42,3.42,1.92,12.02,2.4,17.4,4.1,45.59,19.25,90.37,47.54,126.57,24.79,31.72,51.55,44.62,91.18,28.99,33.24-13.11,34.73-62.71,8.97-84.71-10.9-9.31-30.24-10.08-30.13,7.22.07,11.06,8.11,4.12,8.49,12.58-18.56,5.27-21.31-19.14-8.99-28.79,19.91-15.59,44.32,6.46,51.61,25.23,8.27,21.27,5.24,49.87-11.94,66.08-3.69,3.48-8.48,5.01-12.35,8-1.01.78-2.19-.01-1.51,2.75,6.11-1.05,14.71,3.82,20.08,1.52,2.29-.98,8.63-7.74,10.43-10.02,14.8-18.7,20.81-48.88,15.77-72.01-3.41-15.65-7.61-11.95-16.32-20.9-7.64-7.85-6.78-15.56-18.27-22.56-48.51-29.52-87.22,38.06-46.92,64.93,16.24,10.83,38.39,1.81,29.22-19.01,10.15.56,7.17,9.96,8.67,15.93,1.26,5.01,4.47,10.1,4.56,15.94.17,11.56-9.28,23.88-19.61,28.39-52.63,22.95-111.49-66.49-111.39-111.3,0-1.79,3.72-22.33,7.3-18.6-6.12,14.08-2.35,27.79,2.08,41.74,5.92,18.67,15.65,37.68,29.13,51.91-3.54-8.1-8.52-15.6-11.35-24.06-3.55-10.63-6.15-22.55-2.42-33.54,3.33-9.79,11.84-16.24,12.96-27.86.71-7.41-3.02-12.62-.77-21.19,1.96-7.47,12.17-14.31,12.26-20.01.07-4.26-6.14-15.81-7.69-21.02-7.51-25.2-9.79-51.08-6.61-77.23.85-3.52,37.62-2.47,43.19-4.5-.73-15.94,4.27-31.13,6.05-46.75l-24.68-5.98c-1.55-2.26,6.07-29.74,7.57-34.59s10-29.35,12.82-31.61c1.42-1.14,2.87-1.42,4.6-.88l46.57,19.69c14.58-32.31,30.03-64.61,50.63-93.52,27.47-38.55,58.26-65.94,99.84-88.69,25.28-13.83,53.41-26.31,82.29-29.64l9.78,20.82c-1.5,2.41-2.94,1.49-4.71-.07-2.4-2.11-5.76-10.85-7.88-11.02l-42.64,20.14c3.2,9.86,18.05,10.23,5.19,20.18-24.55,18.99-44.14,29.8-65.85,54.23-1.6,1.8-11.12,13.05-11.33,13.92-.39,1.68.92,1.99,1.92,2.72,9.69,7.11,23.05,12.71,32.75,20.08,1.34,1.02,3.66,2.57,3.49,4.5-13.45,21.09-28.63,41.49-38.81,64.48-1.53,3.46-8.61,20.18-8.83,22.42-.53,5.4,15.21,6.38,16.1,11.09l-6.55,24.61c-2.11,3.08-12.83-1.88-16.15-1.8-.69.14-1.92,2.57-2,3.1ZM601.04,77.78c-48.09-3.29-100.34-.31-146.23,15.3-1.76.6-5.7.93-5.08,3.28l5.37,9.97c46.81-15.75,96.76-18.96,145.94-17.73v-10.82ZM722.31,129.44c-98.69-29.66-207.76-28.64-301.01,17.78-12.45,6.2-26.53,14.18-37.99,22.05-2.73,1.88-16.74,11.29-16.35,13.43l40.31,42.7c14.22-10.44,27.93-22.29,43.64-30.56,9-4.74,19.63-10.56,29.89-6.43,3.39,5.4-12.91,20.66-17.27,22.66-.52.24-1.97.3-1.78-.59l14.4-16.82c-7.04-4.18-40.89,15.65-42.7,19.82l16.89,23.9c18.98-12.73,39.13-23.99,59.83-33.72,13.87-6.51,35.38-16.86,49.98-19.67,1.24-.24,3.94-1.57,3.65.66-39.79,14.55-76.26,35.97-112.55,57.48-1.43.48-2.56.19-3.88-.42-4.3-1.97-13.97-19.66-16.87-24.62-1.78-1.25-25.56,20.42-28.38,23.23-31.1,31.05-58.43,73.93-76.28,114.05-5.26,11.81-11.39,25.34-12.99,38.03l5.34-12.06c18.62-37.79,53.15-83.42,86.52-109.21,2.93-2.27,6.01-3.46,5.41,1.77-.49,4.31-13.16,9.97-14.25,15.43l11.36,16.52,32.72-20.71-.76-4.27-18.26-30.36,3.62,2.11,20.98,29.09c5.86-6.94,25.9-13.28,30.63-18.63.58-.66,1.42-.99,1.06-2.14-1.7-3.92-6.79-10.77-3.46-14.62,2.86-3.3,27.12-16.79,32.81-20.03,28.41-16.2,58.86-30.83,89.67-41.85l-8.4-40.8h4.77s8.5,43.62,8.5,43.62c-17.46,8.22-35.93,14.15-53.33,22.59-23.52,11.41-45.62,25.92-68.67,38.22-3.34,1.17,1.16,9.63,2.46,10.87.44.42.73.96,1.4,1.08l5.2-.51c-40.91,25.75-82.68,51.47-115.89,87.05-13.82,14.8-27.9,32.81-39.27,49.58-3.89,5.74-8.48,12.27-10.53,18.88,11.47-13.9,22.43-28.29,34.78-41.46,76.9-82.01,222-160.56,335.6-165.12,17.82-.72,35.14,2.22,52.72,3.49l1.79-1.81,3.73-24.39c-61.13-5.69-124.18,11.14-179.68,35.76-20.43,9.06-39.91,20.17-60.43,29.02,13.18-11.47,30.52-19.91,46.4-27.44,46.11-21.85,95.78-37.95,146.93-42.19l1.26-27.56c16.27-1.42,31.02,6.34,46.76,8.34l1.02-10.63c-30.71-12.42-63.63-20.31-96.63-24.04-6.9-.78-17.55-2.59-23.92-2.61-1.38,0-2.72-.06-3.62,1.24-1.05,1.53,4.81,21.26,5.22,24.97.72,6.47-3.04,6.89-5.43.55-1.49-3.93-4.2-26.32-5.86-26.77-46.02-1.54-91.68,6.85-135.29,20.74l-1.93,2.57c6.06,11.35,12.48,22.91,15.57,35.5,4.2,3.61,36.27-16.78,44.33-13.11l-2.75,3.84c-11.14,1.68-28.75,14.57-38.82,15.33-1.42.11-2.76.23-4.05-.55l-20-40.13c-1.97-.57-26.12,8.84-30.04,10.48-11.4,4.78-28.5,16.35-38.24,19.4-.61.19-1.96.33-1.77-.58,30.64-22.77,68.82-37.05,105.65-46.84,57.74-15.35,109.3-18.25,168.37-7.44,12.62,2.31,25.22,5.87,37.6,9.23l.58-2.36ZM386.09,112.62c-44.77,13.71-88.75,41.48-120.69,75.62-38.11,40.74-65.11,92.94-84.34,145.01-11.17,30.25-20.49,61.24-19.53,93.95-2.03,0-2.28-4-2.4-5.39-2.95-36.95,12.3-71.79,22.78-106.21l-42.88-17.9c-3.67-.86-5.25,4.59-6.52,7.41-2.89,6.4-17.22,47.98-14.15,51.2l20.43,4.35c4.88-11.22,6.25-25.76,15.54-34.32-20.25,55.69-31.4,124.4,6.75,175.18,19.81,26.37,52.77,39.24,54.54,78.77.12,2.67-.12,3.17-1.54.33-3.29-6.59-4.85-14.26-7.89-20.95-9.9-21.85-30.31-32.18-45.26-49.6-21.36-24.88-30.18-60.15-29.4-92.48l-38.37,1.27c-2.2,17.57-1.95,36.92,1.31,54.4,2.76,14.83,9.54,27.73,12.87,42.26-.21,5.7-8.94,11.84-11.64,16.95-5.41,10.23.78,24.93-4.12,36.71-2.08,4.99-6.97,10.38-8.67,15.33-7.88,22.91,14.16,62.8,31.8,77.46,24.47,20.33,68.37,17.56,63.04-22.24-1.88.04-5.55,5.81-7.9,7.71-25.36,20.39-60.19-7.4-63.4-34.84-6.49-55.41,54-83.11,93.4-44.17,5.96,5.9,7.83,15.72,12.54,20.48,4.02,4.06,12.94,6.97,16.38,13.04l9.62,18.58c4.49-27.01-2.55-55.98-15.83-79.62-3.16-5.62-31.49-40.9-28.58-44.06,5.59,1.65,8.47,9.45,12.02,13.78,42.11,51.27,42.98,76.07,33.45,141.57-2.72,18.69-10.29,32.36-23.87,45.16,8.03,1.86,14.57-8.06,19.18-13.83,30.36-38,35.74-100.33,17.43-144.64-3.23-7.8-8.13-15.04-11.38-22.83,11.04,8.54,17.79,23.18,21.92,36.31,12.57,40.04,7.47,84.06-13.75,120.16l-15.37,22.44c20.34-17.74,34.43-46.09,43.24-71.42,5.65-16.26,6.7-21.94,4.63-39.49-2.62-22.15-11.22-47.18-22.46-66.4-25.96-44.4-70.29-49.35-65.09-115.11.6-7.65,9.56-37.33,19.4-36.04,8.09,1.06,4.67,18.33,4.61,22.82-.22,17.18.89,36.65,7.74,52.39,6.05,4.66,19.51-5.65,23.55-3.16l20.32,54.23c1.18,5.53-9.98,10.62-9,14.97,9.55,14.26,16.51,29.64,20.99,46.22,1.69,6.27,2.11,12.9,3.69,19.12.42,1.67-.01,3.74,2.39,4.2,2.26-27.45.41-59.7-6.6-86.45-14.11-53.82-29.74-85.2-20.68-144.37,6.23-40.67,27.34-81.6,57.29-109.6-3.37-4.57-23.63-12.53-24.06-16.82-.4-4,10.64-16.2,13.86-19.82,19.02-21.43,42.71-41.35,67.71-55.36,1.27-2.2-6.18-11.9-8.64-11.67-36.82,19.43-66.3,44.96-90.66,78.68-21.83,30.21-40.63,65.31-46.54,102.45l13.77,4.69c8.93-26.57,15.87-54.73,34.93-76.18l3.63,1.25c-15.3,24.74-28.05,51.27-34.93,79.71-1.79,1.52-20.88-3.95-22.15-5.84-3.07-4.56,6.67-33.84,9.03-40.3,5.79-15.84,14.13-30.47,21.88-45.37l18.96-28.46c-35.52,36.15-59.49,83.51-76.84,130.87,6.25,1.63,42.94,9.68,45.04,13.2,2.27,3.79-1.61,16.98-1.87,22.19-.73,14.7-.46,30.03,2.38,44.42l-2.91,1.86c-2.98-.62-3.96-10.76-4.21-13.82-1.39-17.33.63-34.95,2.27-52.12l-40.65-10.42c-1.38-.48-1.72.48-2.32,1.4-3.53,5.48-9.15,32.11-10.6,39.89-8.65,46.09-5.46,87.06,10.44,131.13-21.5-29.33-24.89-73.2-21.59-108.66,9.65-103.7,75.66-210.22,164.6-264.08l47.92-27.11ZM709.1,158.84v19.21c0,3.03,7.06.59,8.96.54,37.01-.98,73.9,6.08,106.31,24.09l-.58,2.37-31.9-11.44-9.55,28.26c3.9.42,8.06,1.81,11.63,3.39,8.48,3.75,40.16,19.45,41.08,28.63-5.57,9.42-18.64.2-26.29-2.02-.08-2.01-.63-2.63,1.74-2.35,5.71.7,12.11,5.11,18.67,3.55-4.22-6.35-11.31-10.44-18.03-13.78-5.02-2.49-32.57-11.74-33.74-13.13-1-1.18-1.05-1.91-.88-3.39,1.06-9.05,7.9-21.32,10.44-30.37-.29-2.95-25.79-5.88-29.83-7.78l-6.11,34.73c-53.89-8.89-108.36-.74-159.51,17.03l10.03,35.55,63.18-7.39c2.29-1.54-1.45-15.96-.06-19.88-12-.93-23.74,2.41-35.58,3.46-1.35.12-4.31,1.11-4.04-1.04,13.99-3.79,28.44-7.1,43.05-7.05l2.58,33.45c-54.69,1.68-109.06,11.31-160.92,28.21.02,1.31,3.84.43,5.08.27,14.92-1.96,29.67-5.65,44.77-6.86,41.1-3.31,116.06-1.45,144.03,32.49,2.47,2.99,5.77,2.32,5.5,8.99-.51,12.63-10.56-7.89-12.65-10.28-26.92-30.72-135.69-28.14-173.95-20.23l-19.98,4.62c55.9-2.57,116.21,4.62,166.52,31.02,11.51,6.04,17.95,13.85,27.11,19.69,9.4,6,24.75,8.86,35,14.06l30.68-70.32-.63-2.97-17.15-3.29c-1.76,1.11-13.41,33.26-16.32,38.31-1.03,1.79-1.6,4.01-4.26,3.54,2.25-15.98,11.71-30.68,16.68-46.08,2.38-3.04,27.37,3.77,27.84,6.03-4.58,19.98-14.54,38.1-22.45,56.82l.74,3.02,15.63,4.9,27.7-54.01c2.94-4.08,9.36-1.27,13.09-.08,16.38,5.24,41.89,20.2,56.12,30.33,3.35,2.39,15.54,10.51,15.54,14.07,0,2.74-15.67,19.59-20.61,19.73-16.46-9.35-30.9-24.87-50.21-28.82l-19.93,31.75c11.15,8.6,23.53,15.6,34.62,24.27,2.19,1.71,21,15.8,18.11,18.5-5.56,1.07-14.21-11.76-18.36-10.68l-11.63,11.28c18.33,15.9,34.13,34.58,46.81,55.32l15.68-7.37c-.56-6.14-23.31-32.85-21.62-35.24l40.38-22.73c14.4,10.23,24.23,26.2,32.05,41.98,32.6,65.78,33.32,141.77-11.3,202.15l-14.36,15.04c57.34-27.11,79.9-100.86,78.09-160.35-.14-4.58-3.09-24.62-1.87-26.99.27-.53,1.49-1.5,1.81-1.18,8.46,44.17,3.25,93.53-16.58,134.1-15.23,31.16-54.07,73.52-92.68,62.23-13.63-3.99-23.98-17.7-22.7-32.28.34-3.85,3.76-20.41,5.01-23.84,1.41-3.88,4.22-8.31,8.06-3.92-9.62,15.59,9.03,25.18,22.83,20.41,25.79-8.92,29.18-49.71,8.31-65.93-19.76-15.36-48.18-10.84-61.64,10.2-1.99,3.1-2.72,7.05-4.82,9.59-3.89,4.67-10.92,5.21-14.37,12.05-11.78,23.32-2.06,75.83,20.94,90.48,5.64,3.59,16.7-.06,22.76-2.35-28.57-12.45-37.76-46.84-26.64-74.67,6.69-16.75,24.04-34.07,43.53-29.85,11.65,2.52,19.52,17.4,13.65,28.19-4.14,7.62-16.46,4.99-13.72,1.3,17.54-6.57,5.43-26.79-12.05-22.26-24.35,6.31-33.85,46.14-24.21,67.5,11.78,26.1,50.5,36.25,75.5,25.8,49.04-20.5,79.59-100.54,85.63-149.72.94-7.62-.25-17.72,3.02-24.6,4.24,48.23-10.2,96.38-36.6,136.31-14.23,21.52-31.86,38.83-56.46,48.01,9.78,4.85,22.63-4.34,30.59-10.24,65.94-48.87,80.44-151.26,67.52-227.17-7.84-46.07-36.61-90.13-69.88-122.28-41.7-40.3-154.06-84.88-211.56-93.41-6.13-.91-13.84-.48-19.01-1.4-4.23-.76-3.67-5.32-1.26-5.68.69-.1,10.1.73,12.05.89,46.65,3.83,95.7,24.74,138.15,43.23,4.43-.09,8.27-17.31,13.19-18.09,4.47-.71,28.45,12.27,33.79,15.47,8.19,4.9,15.49,11.1,23.74,15.89l7.72-13.64c-21.73-29.33-46.12-56.37-75-78.84-3.06-.71-11.61,18.12-12.5,21.54,13.16,6.18,27.1,14.4,38.8,23.05,2.99,2.21,14.57,10.28,14.03,13.56-.15.92-2.03,2.51-3.03.67-9.32-6.76-18.59-13.55-28.3-19.76-4.58-2.93-25.72-13.57-26.96-16.35-2.13-4.78,13.41-23.77,12.12-26.41-26.43-18.88-53.74-37.35-84.72-47.99-.3,3.76.21,13.79-4.23,14.47-5.03.77-25.47-6.94-32.72-8.14-2.72-.45-11.48-2.45-12.28.27ZM300.75,344.48c-4.79-1.7-15.73-5.44-15.5-11.38,9.56-32.29,26.88-60,46.7-86.79.42-2.69-9.19-6-11.33-7.67-2.02,0-12.63,14.73-14.75,17.69-33.35,46.46-46.4,102.06-37.44,158.89l13.15-1.26,3.74-20.81c-.21-1.35-5.65-2.05-6.99-3.45-2.74-2.86-1.58-22.31.3-26.11,3.1-6.29,13.24,1.32,16.22-.53l5.9-18.57ZM595.04,273.52l-7.8-33.64c-1.81-2.55-10.21,1.35-13.24,2.39-28.2,9.75-61.81,26.95-87.84,41.84-27.59,15.79-55.65,34.87-79.64,55.43,29.45-13.59,57.66-29.67,88.24-40.84,32.28-11.79,66.27-20.25,100.29-25.19ZM926.47,289.12c-.97,2.94-8.61,13.29-11.22,13.04-1.99-.19-24.8-17.53-30.02-20.45-8.15-4.55-16.95-7.84-25.37-11.84l-7.77,16.74c47.03,16.86,85.01,48.18,113.76,88.58l13.42,20.79c-5.15-18.04-12.31-36.45-20.55-53.28-6.78-13.84-18.87-37.07-27.69-49.16-.68-.93-3.79-4.95-4.57-4.42ZM393.28,291.53c-1.62-1.11-12.51,10.56-14.42,12.57-33.55,35.45-61.89,83.01-74.4,130.31l23.51-41.92c21.16-31.39,46.38-60.12,76.13-83.64l-10.81-17.32ZM741.64,364.86l-5.57,13.15c23.58,10.45,45.26,24.59,66.09,39.64,2.74-1.27,12.24-9.37,10.88-12.05-.72-1.42-10.61-8.61-12.79-10.1-6.77-4.62-24.22-10.48-20.85-19.86,5.86-5.96,15.82-30.29,21.47-33.77,5.09-3.13,14.52,3.23,19.5,5.88,12.02,6.39,22.4,15.25,33.63,22.85l14.78-14.84c.03-4.2-62.83-40.79-72.63-41.48l-32.03,57.48-22.49-6.9ZM914.44,547.29v-22.81c1.8-.32,2.73.38,3.36,2.04,1.57,4.12,3.12,28.79-1.54,29.12-7.94-6.05-15.22-13.09-25.71-14.47-.67-13.6-1.62-27.61-7.28-40.22l-15.66,4.31c-1.2,1.33,10.6,29.58,6.61,34.81-4.07-4.29-4.4-11.94-6.29-17.73-15.02-46.04-44.62-82.91-84-110.53-40.55-28.44-88.75-41.8-131.16-66.97-7.38-4.38-9-7.47-17.81-11.01-28.14-11.28-61.47-15.42-91.56-17.1.38,2.27,2.53,1.96,4.06,2.53,31.66,11.84,62.85,23.78,94.66,35.02,61.85,21.87,187.72,98.6,194.25,170.79,2.92,32.32-16.76,21.24-17.99-.61,2.58-3,8.22,15.35,11.42,15.59,2.73.5,1.64-1.19,1.78-2.97,2.94-37.45-42.36-86.44-70.46-107.27-1.91-1.41-16.26-11.93-17.19-11.01,5.94,6.32,6.18,23.86,9.5,29.22.44.71,11.43,7.21,13.88,9.23,10.53,8.69,33.12,32.11,33.15,46.19.03,14.28-7.93,18.3.06,35.88,2.55,5.62,10.5,12.41,10.61,17.11s-2.7,3.68-4.34,5.66c-3.8,4.6-7.1,10.71-10.97,14.85-1.19,1.28-1.24,3.35-3.85,2.74.32-9.58,7.92-16.88,14.12-23.39-9.6-12.79-16.04-21.37-14.13-38.44.49-4.39,3.19-7.65,3.58-10.92,1.9-15.93-27.76-44.2-40.79-52.12.74,24.91-4.94,50.3-9.99,74.68-6.91,33.34-13.59,41.59-3.35,77.34.64,2.24.4,7.4,3.72,6.48-.41-16.76,5.45-31.13,15.11-44.33,1.95-2.67,13.2-13.44,11.31-15.7-3.66-.95-17.76-2.7-18.07-6.61-.27-3.4,8.24-23.23,9.97-28.51,2.4-7.34,2.98-15.3,6.62-22.22.83-1.58,1.09-3.01,2.09-.33,3.35,9.02-10.16,40.04-12.63,50.45l13.73,3.53,3.68-11.93c5.24,6.79,2.31,15.57-2,22.01-6.14,9.19-13.85,14.69-19.24,26.39-14.16,30.8-4.72,53.6,10.82,80.88,4.52,7.94,10.68,14.96,16.42,22,.48-4.4-4.59-8.37-6.81-12.4-12.88-23.36-17.83-55.18-12.45-81.3,1.56-7.59,5.49-21.8,13.99-23.42,8.75,1.02-2.05,27.38-1.34,33.07-3.12.47-2.48-.55-2.44-3.04.11-7.45,3.29-15.85,3.64-23.38-2.85-3.27-7.06,11.33-7.35,12.45-6.37,24.38-2.88,49.02,6.13,72.23,3.09,7.95,16.45,32.46,24.67,34.17.87.18,7.97,1.02,6.57-1.76-26.45-18.87-32.05-69.14-12.52-94.19,4.9-6.28,11.38-7.57,15.59-12.03,6.62-7.01,7.29-16.23,17.45-24.58,41.73-34.28,95.63-4.28,88.45,48.82-3.88,28.7-36.38,52.75-62.7,33.3-2.01-1.48-6.27-8.29-8.47-4.81-3.67,19.69,14.33,36.03,33.58,31.18,27.14-6.84,44.5-47.47,51.7-71.97,9.56-32.51,7.98-64.22,1.75-97.2-5.35-1.61-21.84,5.29-25.22,3.01-1.6-1.08-10.31-30.52-12.94-36.3-2.04-4.47-14.62-24.72-14.64-26.23-.02-1.97,1.61-3.69,3.64-2.41,3.07,1.93,17.26,29.55,19.4,34.64,3.1,7.37,5.86,14.85,7.23,22.79l1.74,1.93,18.45-2.3c-5.88-29.96-20.7-59.39-41.66-81.54l-33.47,17.87c-1.05,1.29-.43,2.29.07,3.58,2.2,5.6,23.41,27.7,19.66,33.53l-19.06,8.57c2.69,4.89,5.77,14.27,8.54,18.47,2.43,3.69,9.56-1.67,13.75-2.8,2.02-.54,7.3-2.1,8.79-1.13,4.62,13.04,8.17,26.51,7.55,40.48l20.21,11ZM661.82,343.44l-.87,1.75,21.39,10.67.87-1.75-21.39-10.67ZM746.34,487.25c2.17-.45,2.24-2.36,2.44-4.15,2.11-19.27-.59-55.26-13.85-70.31-7.76-8.81-33.09-22.94-44.23-29.01-17.93-9.78-36.74-18.28-56.03-25.01-.35,2.48,3.62,4.54,5.43,5.97,28.4,22.34,44.75,39.53,63.97,70.51,17.56,28.31,32.45,60,32.66,94.02,3.16.53,2.12-.52,2.74-2.59,4.66-15.66,3.96-35.91-.99-51.39-2.49-7.78-8.93-16.18-10.83-22.9-1.16-4.08.67-9.05-4.13-13.16,7.23.96,6.21,7.7,8.14,11.66,5.71,11.68,13.52,22.84,14.68,36.36ZM214.38,419.41c-1.05-13.48,0-29.43,0-43.23,0-.57-1.27-3.7-2.99-2.99-6.1,2.52-12.41,28.94-12.62,35.44-1.37,42.21,24.69,58.89,50.46,85.2,1.85,1.89,4.09,6.37,5.98,7.31,3.25,1.62,8.39-6.81,8.47-9.64.12-4.47-9.85-25.06-12.1-31.24-2.05-5.63-3.97-11.46-4.79-17.43-1.19-1.06-20.76,13.47-27.97-2.65-2.23-4.98-4.02-15.33-4.45-20.77ZM922.84,711.79c33.95-13.67,61.68-36.34,76.68-70.4,15.89-36.09,15.67-98.76,10.84-137.78-.99-7.97-2.95-16.86-4.68-24.75-2.05-.31-1.28,2.86-1.17,4.17,6.27,76.03-9.49,175.58-83.02,216.01-2.44,1.34-9.71,3.2-10.64,4.97-1.11,2.1,5.71,3.73,6.61,3.7,3.81-.13,20.11-10.99,23.97-13.96,22.3-17.17,38.64-41.88,47.48-68.41l2.36.57c-4.11,26.06-21.68,52.2-42.1,68.37-8.24,6.52-18.43,10.53-26.32,17.5ZM171.16,558.11c-58.77-13.92-82.03,74.32-23.31,88.75l10.09-2.29c-40.34-.25-49.77-57.92-17.19-77.85,11.51-7.04,16.91-4.72,28.62-6.22,1.65-.21,3.71-.84,1.79-2.4ZM866.41,645.74c18.61,4.05,35.7-9.08,41.16-26.67,11.08-35.72-18.58-70.18-55.57-60.96,2.51,4.24,9.98,1.9,14.88,2.52,39.69,5.05,48.39,62.25,13.81,80.78l-14.27,4.33ZM97.9,708.21c-27.56-10.05-44.79-34.45-60.24-58.05l-23.8-52.43c.61,33.58,18.89,69.4,45.22,89.85,6.41,4.98,28.02,19.63,34.88,21.56,1.13.32,4.25,1.17,3.93-.93ZM794.36,646.36c-.87-7.71.64-16.75,0-24.62-1.81-.04-1.76,4.26-2.03,5.77-3.31,18.63-.99,34.34,8.73,50.57,2.97,4.96,6.63,11.1,12.52,12.69-8.85-12.01-17.54-29.45-19.22-44.42ZM208.39,692.59c22.01-15.08,26.76-43.32,22.79-68.44l-2.72,24.27-8.82,27.2-11.25,16.96ZM227.58,733.41c-.11-3.25-2.41-5.55-2.41-9.01,0-6.59,8.57-13.27-1.29-19.15-1.85-1.1-10.08-1.89-12.45-1.91-5.22-.04-10.08,1.33-14.4,1.29-9.6-.1-21.28-4.34-31.23-4.9-21.07-1.18-47.57,6.82-64.18,19.97-6.08,4.81-10.04,9.28-4.91,16.7,7.67,11.08,13.93.7,22.76-3.66,9.99-4.93,22.46-9.73,33.68-8.94-9.84,9.08-25.26,10.87-37.15,17.47-4.77,2.64-9.49,5.08-8.47,11.33,28.35-13.86,59.83-20.83,91.25-14.39.28,2.1-2.73,1.13-4.18,1.19-8.3.34-17.09-.59-25.28-.05-12.18.8-56.3,8.86-61.47,20.18-1.61,3.52-2.67,13.58,2.66,13.55,1.17,0,11.12-8.76,13.67-10.43,25.23-16.53,56.39-21.53,85.15-11.59,8.02,2.77,14.28,7.8,21.87,11.14-2.73-11.32-14.58-19.04-24.11-24.51-8.56-4.92-50.95-22.94-58.86-22.91-8.31.03-18.23,6.03-26.3,7.79.51-1.8,2.44-2.94,3.95-3.84,18.64-11.18,71.31-16.16,88.48-1.52,1.7,1.45.34,2.88-.56,2.93-2.81.17-19.11-6.39-25.38-7.02s-13.18.15-19.67-.13c3.16,5.09,9.92,2.01,14.85,2.48,13.01,1.22,32.35,11.73,43.97,17.92ZM922.48,719.38c-4.78-3.85-24.63-13.3-30.9-15.33-27.16-8.8-50.78.09-77.53.44-5.47.07-10.45-3.26-16.02,1.98-6.91,6.5,3.46,17.43-1.25,25.75,11.67-4.92,31.42-16.44,43.87-16.86,4.76-.16,12.58,3.03,16.16-2.34-16.47-2.21-32.13,2.48-48.03,5.98,14.56-13.42,42.69-12.38,61.28-9.04,10.1,1.82,25.18,5.6,32.38,12.64-8.23-1.64-17.45-6.95-25.88-7.22-16.3-.53-69.1,24.63-79.76,37.89-1.31,1.63-7.8,10.84-1.81,7.82,2.89-1.46,5.58-4.22,8.72-5.71,20.83-9.88,42.11-11.82,64.41-6.26,17.25,4.3,32.69,13.2,45.72,25.11,5.82-3.68,3.82-14.75-.63-18.56-6.93-5.93-35.64-13.23-45.35-14.69-13.37-2.01-24.87-1.02-38.09-1.55-1.46-.06-4.47.91-4.18-1.19,29.97-5.59,63.49-.72,89.45,15.57,6.79-6.67-5.61-11.3-11.15-14.04-9.23-4.56-21.16-7.42-29.72-12.31-1.63-.93-3.49-.99-2.95-3.64,17.72-.12,34.14,9.62,48.64,18.92,4.85-4.52,11.91-8.85,8.37-16.51-.19-.41-5.4-6.56-5.75-6.85ZM235.99,753.83c1.42-16.55-17.79-22.47-30.4-27.83-7.46-3.17-15.7-6.43-23.62-8.18l34.97,18.44,19.04,17.57ZM842.39,717.82c-4.88.17-9.85,2.5-14.39,4.21-14.92,5.62-40.99,12.72-40.83,31.8,10.09-12.67,23.93-20.95,37.98-28.65l17.23-7.36ZM205.99,803.05l-21.01-49.24c-1.81-2.18-16.09-1.8-16.2.61,18,35.67,19.77,81.15,9.58,119.47,6.68.69,19.83-7.15,20.51-13.77.69-6.73-2.79-25.58-4.05-33.3-2.69-16.49-7.56-32.55-10.45-48.97l5.37,9.62c7.62,22.41,9.58,46.27,12.64,69.62,5.59-4.5,9.29-11.18,15.02-15.58,5.11-3.92,9.61-4.84,14.95-7.83-14.08-22.18-28.81-46.62-33.58-72.65l29.51,52.73c6.06,7.33,10.72,18.27,16.81,25.22,1.2,1.37,1.85,2.96,4.1,2.49-.82-4.65,2.93-8.67,3.53-12.68.57-3.75-.31-7.73.32-11.69.32-2.01,2.59-3.34,2.15-5.64l-7.2,1.18,1.87-3.6c-15.64-10.79-29.27-23.7-39.6-39.71-5.82-9.03-5.3-16.7-19.93-14.9,4.1,14.47,12.94,29.26,16.29,43.75.28,1.22,1.72,5.04-.65,4.85ZM844.79,873.9c-8.94-38.77-8.75-83.56,9.58-119.48-.14-2.43-14.63-2.78-16.21-.62l-21,50.45c-2.37.18-.93-3.63-.65-4.85,3.25-14.07,11.1-30.14,16.25-43.8.27-1.94.16-1.97-1.72-1.74-15.82,1.95-11.92,6.46-18.9,17.15-10.09,15.45-24.66,27.74-39.33,38.64l2.34,4.21-6-2.38c4.06,9.85.29,20.92,6.6,29.99,3.35-.04,32.44-49.59,36.05-56.39,4.19-7.9,7.17-17.3,12.57-24.04-4.19,26.12-19.79,49.7-32.39,72.58,4.71,2.88,9.25,4.4,13.76,7.9,5.07,3.93,8.42,9.94,12.6,13.82,1.18,1.09,1.7,2.2,3.63,1.76.82-22.25,3.26-47.58,11.46-68.39,1.18-2.99,2.6-7.83,5.34-9.65-4.5,22.69-11.25,45.9-13.19,69.05-.23,2.72-1.08,11.21-.88,13.06.6,5.33,14.37,14.31,20.07,12.74ZM165.03,753.92l-9.49,2.32c9.96,17.62,16.39,69.71-2.97,81.66-16.64,10.27-15.2-17.21-4.83-24.04,2.11,6.36-6.81,12.73-3.62,19.19,4.49,9.09,14.49-9.35,15.7-14.32,2.89-11.84.71-32.62-2.49-44.5-.92-3.42-3.83-13.64-6.61-15.08-2.24-1.41-14.97,5.21-15.6,6.36-2.11,17.04-4.44,34.51-12,50.15,5.19.89,11.04-5.12,13.81-9.01,4.91.54-1.14,7.34-2.4,8.42-8.42,7.22-18.19,6.28-16.23,22.8l-3.65-.65-2.34,6.64c28.76-8.89,38.67,26.85,62.97,30.09,7.78-39.67,5.63-82.62-10.26-120.04ZM874.82,813.87c22.36,22.12-3.97,40.37-13.56,9.34-5.69-18.43-2.37-48.87,6.33-66.34l-7.69-2.84c-3.34.76-10.87,27.72-11.9,32.44-6.16,28.26-6.41,59.26.48,87.34,24-4.06,34.61-38.77,63.54-29.94l-2.41-7.2-4.78,1.21c.26-4.6-.18-10.57-3.04-14.38-3.34-4.45-16.49-8.76-17.27-13.98-1.02-6.84,6.83,2.57,8.37,3.67,1.07.76,6.22,3.81,7.13,3.07-3.14-10.69-6.74-21.43-9.05-32.37-1.16-5.5-.86-11.4-1.75-16.26-.75-4.1-12.43-8.62-16.73-8.92-9.48,14.79-16.11,65.96.44,75.63,12.8,7.47,4.07-15.83,1.88-20.47ZM273.21,804.27c-14.19-4.35-28.91-14.45-39.63-24.62-7.54-7.15-12.54-18.03-24-19.82,12.47,23.09,32.96,40.52,55.77,52.9l7.86-8.47ZM813.57,759.84c-12.45,2.48-17.92,14.87-26.98,22.84-10.65,9.37-23.56,16.89-36.65,22.18l8.96,7.86c19.41-11.56,36.63-25.48,49.65-44.1.92-1.31,5.86-7.96,5.02-8.78ZM943.24,883.51c5.72-7.23.68-13.18,3.65-20.98,1.57-4.12,5.68-4.69,4.3-9.07-.61-1.92-13.99-16.61-16.81-20.51-7.8-10.79-15.07-23.51-20.98-35.46-5.1-10.32-6.36-23.85-18.17-28.05,7.81,40.53,23.89,80.59,48,114.07ZM129.13,770.65c-11.36.55-12.77,15.81-16.98,24.43-10.65,21.82-25.07,42.69-41.83,60.21,5.3,3.17,6.93,5.72,7.25,11.97.36,7.06-3.01,10.76,4.15,16.24,21.48-34.93,38.45-72.61,47.42-112.86ZM57.08,822.29c.29-.28,5.89-1.75,7.63-2.59,11.59-5.63,24.2-12.69,33.23-22.01,1.02-1.05,8.01-9.37,7.16-10.24-5.54,2.87-10.9,6.84-16.81,8.99-6.44,2.35-11.87,2.19-17.78,3.83s-9.58,8.66-15.8,5.78c-2.97-1.38-4.91-7.71-9.63-6.59,4.15,12.29-5.72,21.56-1.48,34.49.65,1.98,6.79,10.53,8.68,8.72-9.11-11.45-8.54-27.36,4.79-34.81-.09,5.48-5.77,7.36-6.91,12.88-1.9,9.18,2.41,25.79,14.12,20.73l1.81,7.21c8.45-5.75,5.35-14.84-1.74-19.93-3.36-.82-2.82,6.5-6.07,3.73-3.88-3.3,2.96-9.86,10.77-4.76,4.23,2.76,4.18,7.02,5.45,11.35,3.27-2.75,23.89-30.66,22.21-32.41-4.18,1.5-7.18,5.04-11.2,7.4-7.99,4.7-17.72,8.81-26.9,10.35-2.4.4-2.17-1.49-1.52-2.13ZM964.48,807.05c-7.39-8.42-20.19-7.48-30.26-11.17-6.18-2.26-11.23-6.32-17.39-8.42,9.1,11.4,20.52,21.35,33.6,28.23,2.8,1.47,17.9,6.96,18.01,8.38.21,2.72-3.32.7-4.1.54-5.64-1.13-10.81-3.68-16.27-5.36l-21.63-12.58c5.3,11.76,13.7,21.69,22.22,31.2,1.4-5.25,4.45-11.72,10.8-12.11,4.47-.28,8.71,3.52,4.8,7.29-1.46-.1-2.39-8.92-9.03-1.8-5.65,6.07-4.03,12.37,1.83,17.42l1.11-4.88c10.68-1.09,16.37-9.05,15.86-19.56-.35-7.22-4.09-8.8-8-13.41-.89-1.05-.85-2.98-1.56-3.79ZM34.27,795.86c2.13,21.73-9.96,37.67-.88,59.11,6.73,15.89,15.92,16.71,24.73,1.75-6.11-11.47-20.64-16.32-20.15-31.33.29-8.92,12.86-27.15-3.71-29.52ZM984.87,863.88c17.49-19.01,3-46.2,4.01-68.03-14.4,3.62-3.72,21.18-3.56,30.68.29,17.73-18.71,20.44-19.26,30.08-.22,3.91,7.46,9.76,10.72,11.96,1.66.36,6.85-3.33,8.09-4.69ZM24.65,822.27l3.6-25.22c-3.33,2.76-5.3,9.77-5.86,13.94-.16,1.17-1.15,14.92,2.26,11.28ZM1000.89,824.67c0-9.03,1.01-20.88-5.99-27.61-.75,8.43,1.48,16.61,3.57,24.69.51,1.99-1.23,3.52,2.42,2.92ZM978.07,799.46l-4.62.19c-.15,4.45-3.22,5.2-6.17,7.62v1.77c12.22,4.32,12.42,23.46,4.85,31.9-3.31,3.69-11.1,5.86-11.55,6.46-1.22,1.63-.68,5.2,1.31,6.08,2.2.98,4.39-6.97,6.54-7.84,4.28-3.15,10.23-7.03,11.53-12.48,3-12.48-5.39-21.79-1.89-33.7ZM282.82,807.88c-4.06-2.96-14.33,3.4-13.2,7.77l3.62,1.24,9.58-9.01ZM753.53,816.26c-.42-5.8-6.61-9.38-12-9.59-1.41,1.27,8.48,12.05,12,9.59ZM231.2,915.92c14.13-2.75,22.62-18.96,28.65-30.78,9.77-19.16,17.76-44.82,30.89-61.57,2.77-3.53,6.84-6.32,9.51-9.71,1.02-1.29,2.69-1.47.62-3.02-.83-.46-12.23-1.39-13.38-1.15s-11.5,7.65-11.85,8.39c-1.38,2.86,7.18,2.78,7.19,5.38-9.49-3.26-10.64-1.22-14.98,7.24-2.57,5.01-7.36,18.22-7.75,23.56-.35,4.81,2.11,8.12,2.11,11.84.03,14.92-24.58,36.13-31.01,49.82ZM743.94,821.09l3.57-1.8c-6.47-10.76-15.4-10.81-26.39-7.22,14.31,12.27,22.26,28.73,30.23,45.42,9.7,20.34,16.61,51.51,40.61,58.44-6.4-13.66-24.95-29.72-29.08-43.55-2.56-8.55,1.08-9.47,1.31-14.61.27-6.29-9.06-31.41-13.69-35.52-2.69-2.39-5.8,1.85-6.55-1.15ZM266.03,890.71c8.28-8.74,19.86-13.1,28.82-21,11.82-10.42,30.77-36.47,27.57-52.82-.4-2.02-1.44-3.02-2.98-4.22-3.87-1.5-.57,8.97-.59,10.19-.21,16.05-15.78,36.73-27.59,46.85-6.35,5.44-17.26,10.27-22.25,14.97-1.52,1.43-3.15,3.82-2.96,6.03ZM757.12,890.71c.4-2.22-.39-3.3-1.7-4.89-3.14-3.8-17.98-11.33-23.52-16.11-12.18-10.51-26.9-30.49-27.52-47.03-.13-3.43,2.13-6.87.53-10.02-9.91,8.59,1.32,29.45,7.28,38.34,12.53,18.68,28.13,26.2,44.93,39.71ZM261.22,821.06c2.5-5.43-2.77-9.85-4.56-3.94-1.01,3.35.22,7.95-.35,11.65-1.22,7.86-9.32,17.71-.5,23.49,3.22-6.51,4.17-13.71,7.23-20.37,1.85-4.03,5.4-7.03,6.61-11.42.72-5.05-7,2.08-8.42.58ZM272.03,878.71c9.34-5.92,17.81-11.45,25.17-19.85,9.2-10.51,24.01-31.46,15.06-44.94-16.28,9.99-26.76,31.27-34.45,48.37-1.14,2.54-7.01,14.76-5.78,16.42ZM752.33,878.7c-11.19-22.23-18.78-53.68-43.22-64.82-3.96,26.54,20.23,54.23,43.22,64.82ZM768.91,852.01c6.01-3.37-.13-16.17-.87-20.84-.53-3.37,1.54-17.49-4.06-17.11-7.24.49,1.71,6.33-2.67,7.01-.69.11-8.65-5.49-7.8-.59.52,2.97,8.35,13.8,10.17,19.85,1.19,3.95,2.28,7.75,1.86,11.96,1.11-.09,2.32.3,3.36-.28ZM819.59,870.3c.78.54,2.3-1.72,2.42-3.04.56-6.19-18.74-24.17-24.78-26.84-5.28-2.33-8.84-3.8-12.47,1.67,15.82.73,28.19,15.07,34.83,28.21ZM238.39,842.68c-2.28-8.74-15.73-.37-20.3,3.11-6.21,4.74-17.5,14.84-15.7,23.31,9.93-10.66,19.21-27.35,36.01-26.42ZM63.05,847.54l-8.36-2.45,4.81,9.6c1.12.86,4.53-5.38,3.55-7.15ZM174.76,877.51c-22.44-.96-38.74-42.01-64-28.58-2.59,1.38-9.82,11.65-5.12,10.5,9.61-2.36,13.22-3.82,23.45-.51,16.49,5.34,26.75,24.66,44.54,24.06l1.13-5.48ZM242.86,847.85c-10.78-8.7-37.68,18.7-40.2,28.15-1.42,5.33.52,13.59-1.5,19.52-2.09.28-1.13-2.73-1.19-4.18-.15-3.79.11-7.63,0-11.41-3.99.9-6.55,4.09-10.47,5.73-4.29,1.79-13.15,2.3-14.77,3.24-2.05,1.19-1.23,5.23-3.57,5.42l.02-6.59c-23.03-4.95-32.62-29.72-58.15-26.89-11.93,1.32-15.57,6.08-19.94,16.67,35.6,1.32,55.44,44.45,92.75,39.33,34.08-4.68,34.92-45.52,62.82-58.49,1.86-1.94-4.45-9.39-5.81-10.49ZM821.99,895.51c-1.84-5.93,0-15.67-1.47-20.75-.57-1.97-13.08-17.43-15.31-19.52-5.26-4.92-16.54-11.86-23.53-7.82-.55.32-6.93,6.8-7.15,7.27-2.22,4.76,4.29,5.19,7.72,7.9,17.49,13.89,22.28,39.46,42.52,49.94,37.2,19.26,61.93-23.24,93.53-32.96,4.3-1.32,8.54-1.96,12.94-2.66l-8-12.71c-7.4-2.3-13.35-4.25-21.29-3.37-21.17,2.34-29.11,24.64-49.96,26.29l1.2,7.2-4.34-5.85c-9.51.6-17.91-3.64-25.65-8.56-.13,3.79.14,7.62-.01,11.42-.06,1.46.91,4.46-1.19,4.18ZM919.23,859.49c-2.46-13.19-14.8-14.78-25.85-10.85-16.62,5.91-26.2,25.91-44.48,30-.54,7.71,6,4.95,11.12,2.68,18.55-8.23,33.35-33.79,59.22-21.83ZM964.86,869.09c1.4-1.3-7.05-9.23-8.75-9.93-6.63-2.75-7.37,11.81-6.85,15.94.84.96,12.25-7.97,15.6-6ZM73.89,873.9c1.32-16.45-5.58-19.2-15.58-6.6l15.58,6.6ZM226.38,911.12c7.59-15.66,23.95-26.86,28.62-44.1l-1.63-2.71c-10.27-1.96-25.11,28.27-30.88,35.13-2.29,3.88.76,9.1,3.89,11.68ZM799.15,911.13c.27-4.83,3.65-6.84,1.78-11.95-1.15-3.13-14.62-22.67-17.4-25.85-2.96-3.38-14.5-14.18-14.47-4.85.02,8.49,23.74,35.21,30.09,42.65ZM175.97,884.7c9.51-.18,24.94-4.94,22.8-16.8-6.04,4.79-12.46,9.39-20.39,10.22l-2.41,6.58ZM824.39,867.9c-5.86,10.25,23.38,21.51,23.92,15.03-1.46-7.24-6.31-4.76-12.21-6.94-4.24-1.57-8.15-5.43-11.71-8.09ZM81.09,897.92c-.48-14.34-18.29-32.78-32.41-22.8,4.36,3.74,10.23,3.02,16,6.2,7.31,4.03,10.91,10.82,16.41,16.6ZM974.47,875.12c-14.01-9.79-30.5,7.27-31.2,21.6l14.48-14.93,16.72-6.67ZM34.27,890.7c32.56,2.57,48.38,39.03,78.29,47.21,5.76,1.57,12.6,3.42,17.76-1.01.88-3.14-4.16-6.41-6.31-8.03-12.08-9.07-29.34-14.74-41.63-24.42-8.24-6.5-11.82-16.4-22.45-20.77-11.24-4.62-18.65-3.07-25.66,7.03ZM990.09,890.7c-8.13-8.63-14.36-11.83-26.04-7.41-10.97,4.15-14.71,14.36-23.3,21.13-7.32,5.77-47.85,25.13-47.78,31.33,1.33,2.25,2.75,2.71,5.19,3.05,34.35,4.73,56.99-48.3,91.92-48.1ZM133.93,926.73c-.58-9.75,6.35-16.5-1.83-23.98-6.25-5.71-19.44-13.23-27.56-15.66-16.84-5.05-22.64,1.63-10.82,15.62l40.21,24.02ZM889.23,926.73c.97,1.21,12.21-8.26,14.04-9.36,9.24-5.55,29.24-11.68,32.23-23.02,3.1-11.77-9.52-9.65-16.89-7.27-6.06,1.95-31.23,15.07-31.79,21.07l2.41,18.59ZM270.82,900.33c-5.41.77-5.93-1.87-7.8-6-8.21,16.33-37.32,49.21-45.09,14.45-2.5-1.72-11.29,7.94-14.44,9.14,3.21,6.83,1.42,18.11,9.64,20.31,6.76,1.49-1.96-20.05-1.14-21.09,3.11-.62,2.1.67,3,2.34,3.13,5.77,4.79,12.7,4.21,19.27,19.89-3.67,43.29-13.59,57.65-28.19,1.48-1.51,10.58-11.73,5.37-11.46-9.44.5-8.99,6.8-13.83,12.6-5.24,6.28-11.96,11.24-19.17,15.04l15.57-16.24,6.03-10.17ZM805.18,907.53c-3.4,20.81-13.84,20.9-28.26,8.43-7.28-6.3-11.49-14.27-17.37-21.64.47,4.43-2.19,4.47-5.5,5.94-1.8,2.12,7.6,13.39,9.67,15.68,2.71,3,6,4.61,8.46,7.15.88.91,3.03,2.55,1.17,3.63-6.16-3.68-13.66-8.66-18.05-14.37-4.77-6.21-4.71-14.89-14.97-13.23-2.6,2.47,10.49,14.93,12.64,16.77,13.57,11.6,33.43,20.38,50.99,22.85-.6-7.42,2.04-14.82,6-21.03,2.13-1.74,1.1,2.5.91,3.31-1.26,5.52-4.55,10.31-3.3,16.52l6.63-1.18c.43-6.75,8.33-14.31,3.02-19.89-1.2-1.26-7.62-6.79-9.03-7.77-1.02-.7-1.19-1.67-3.01-1.18ZM203.42,937.4c2.51-4.05-1.78-6.54-6.16-5.62-7.42,1.55-21.78,12.98-30.1,16.77-44.76,20.44-88.52,2.17-120.76-30.95-3.17-3.25-13.69-18.51-16.33-18.53l-2.98,1.83c25.86,43.17,89.15,71.12,138.07,56.46,12.56-3.76,22.19-10.41,32.76-17.67,1.29-.88,5.31-2.01,5.49-2.3ZM142.34,912.33c-2.11,9.53-.36,28.57-10.82,33.02-13.89,5.91-34.27-5.2-45.52-13.31-15.64-11.27-29.16-30.71-49.34-32.91,28.32,43.7,82.91,69.04,132.9,44.63,10.44-5.1,20.51-15.51,32.82-15.83l-1.27-7.14c-10.41,2.56-19.44,4.75-30.42,3.4s-18.76-8.37-28.34-11.87ZM986.48,899.13c-29.41,5.4-42.42,35.5-70.87,45-30.36,10.14-32.61-7.86-34.81-32.99-17.57,13.48-37.79,17.11-58.81,9.61l-1.22,7.19c12.94.3,22.01,10.55,32.82,15.83,44.23,21.59,90.55,4.69,122.12-29.6,1.4-1.53,12-13.89,10.77-15.04ZM996.08,899.13l-5.48,1.12c-28.32,40.27-78.72,70.61-128.62,50.73-11.75-4.68-28.7-19.03-39.65-20.43-2.84-.36-2.47,4.25-2.86,6.24,14.94,8.01,26.4,17.5,43.32,21.79,43.13,10.94,97.33-11.78,125.51-45.02,1.86-2.19,10.29-11.92,7.78-14.42Z"/>
    <path d="M969.66,463.23l-26.2-52.43c-36.58-61.78-87.94-103.34-157.25-123.73-8.94-2.63-56.19-14.38-61.57-10.62-3.37,6.04-4.71,25.25-8.9,29.52-5.23,5.33-21.57-7.28-27.44-9.85-7.88-3.45-16.53-5.04-24.6-7.88-1.94-.68-3.21.62-2.63-2.71,18.68-1.43,34.5,8.92,50.41,16.81l7.22-27.62-22.82-1.2v-9.62c59.64,3.69,122.55,17.29,172.1,51.86,38.55,26.9,72.69,67.15,91.1,110.63,4.77,11.28,9.6,24.71,10.58,36.84Z"/>
    <path d="M952.85,547.28c-2.09.28-1.13-2.73-1.19-4.18-.49-12.63.26-24.33-1.35-37.08-3.5-27.62-30.73-94.86-47.9-116.61-1.59-2.02-5.94-8.01-8.4-7.18-7.62,4.06-32.83,26.68-39.96,25.56-4.66-.73-30.23-25.61-37.5-28.59l-1.78-4.82c3.47-3.46,35.79,25.4,40.44,28.62,4.32.65,31.98-24.62,38.48-26.01s10.59,6.18,14.03,10.7c12.91,16.97,39.12,78.19,43.58,99.32,4.17,19.77,5.55,40.4,1.54,60.28Z"/>
    <path d="M100.91,387.59c2.75.22,7.01,2.13,10.61,1.4l2,3.39c-5.74,2.83-10.78.07-16.16-.04-3.79-.08-18.73-1.11-19.7,2.01l-5.07,57.48c-.26,25.17,7.31,61.26,2.19,84.94-.25,1.16-.43,3.6-2.07,3.31-.39-8.14.5-16.46-.02-24.6-.97-15.11-4.17-30.4-4.84-45.59-3.43-77.4,17.29-156.74,57.19-222.69,12.65-20.92,27.93-42.83,47.32-57.74,1.59,1.76-12.6,16.32-14.37,18.64-4.53,5.92-29.67,40.86-28.94,45.44l20.41,10.31c6.12-8.8,12.13-24.33,19.33-31.74,1.14-1.18,1.59-2.26,3.58-1.81.26,1.7-.07,3.13-.66,4.73-1.22,3.29-18.01,32.24-19.73,33.1-7.48,3.68-18.79-8.12-25.71-10.14-21.95,39.86-41.7,83.54-46.35,129.61,6.86.39,14.22-.54,21.01,0Z"/>
    <path d="M174.63,282.98l-4.62-1.64c14.91-36.83,38.34-69.42,63.51-99.84l-12.3-9.9-37.47,37.06c-2.98.48-1.87-2.08-1.24-3.64,1.64-4.07,8.82-11.92,12.04-15.57,7.46-8.43,16.25-15.87,24.59-23.39,3.06-1.37,18.85,10.18,19.29,13.26.21,1.46-.11,2.83-.56,4.21-1.71,5.27-19.74,25.34-24.48,31.98-15.08,21.15-28.04,43.8-38.78,67.48Z"/>
    <path d="M112.32,441.02c.11-.43,1.97-2.1,2.39-1.8,2.26,9.51,2.31,19.38,3.99,29.04,2.75,15.81,7.3,27.5,15.03,41.41,1.66,2.99,9.84,13.61,9.86,15.44.02,3.25-11.92,7.01-15.26,8.77-1.17.62-14.95,11.41-14.78,5.61,6.43-8.58,14.61-11.42,23.97-15.61-8.18-11.33-15.85-24.18-20.05-37.57-1.26-4.03-5.14-17.96-5.14-21.27,0-5.66-1.1-19.69,0-24.02Z"/>
    <path d="M678.48,141.43c4.22,1.18,4.66,20.45,5.27,25.08l-64.12,13.46-3.04-.66-10.75-39.07c1.64.16,3.72-.76,4.91.75,3.55,4.47,6.68,33.57,10.06,33.91,18.46-6.06,37.72-9.87,57.08-11.84l-2.33-16.29-19.96-1.66-.53-3.67h23.42Z"/>
    <path d="M565.91,142.95c3.5,3.29,9.9,31.97,8.7,38.1-5.6-2.85-10.19-32.19-12.15-33.47-16.09.38-31.22,8.13-46.67,11.85-.37-2.69-.05-3.11,1.95-4.64,3.94-3,12.9-5.8,17.83-7.39,5.73-1.85,26.21-8.35,30.34-4.46Z"/>
</svg>
