<svg xmlns="http://www.w3.org/2000/svg" fill="currentColor" viewBox="0 0 1024 1024">
    <path d="M662.03,955.77l2.02-4.78,47.42-28.03c-6.18-11.64-12.22-25.7-14.44-38.75-5.53-32.51,8.7-60.85,33.13-81.49,34.17-28.87,72.13-26.4,109.91-5.71l2.24-1.07,47.79-93.57c-.26-2.62-10.2-8.21-13.05-10.58-32.48-27.06-44.56-60.51-31.56-102.12,11-35.22,39.13-52.78,73.13-62.22l-19.28-104.57-1.35-1.07c-44.3,7.33-84.5-12.18-102.72-53.46-11.34-25.67-10.64-48.06.76-73.52,3.88-8.67,9.91-16.28,13.38-24.79l-81.27-67.62c-7.38,5.45-13,12.22-20.62,17.54-53.12,37.05-127.32,10.97-143.04-52.07-1.81-7.25-2.23-14.78-4-22.03-23.45-3.08-47.68-4.25-71.39-3.07-5.46.27-29.34,2.33-32.13,5.05-3.42,3.32-6.9,26.46-9.63,33.74-12.08,32.26-38.8,52.36-72.54,57.57-32.23,4.98-60.62-7.57-82.04-31.31l-1.32-.08c-30.23,18.8-58.72,42.48-81.53,69.75,21.85,30.49,29.7,62.42,13.65,97.89-18.23,40.26-58.56,59.55-101.82,52.44l-18.61,106.56c31.9,6.76,60.49,24.14,72.83,55.46,18.46,46.85,1.39,92.56-41.83,116.83l50.83,96.63c38.97-23.69,79.67-24.02,115.8,4.99,39.08,31.38,34.64,76.45,16.78,118.87l47.51,26.26,2.03,4.77c-16.26-3.57-32.39-11.55-48.33-15.48-17.74-4.36-14.06,1.78-26.87,10.29-66.53,44.19-157.33-15.59-140.84-93.75,1.98-9.4,9.43-20.3,5.69-29.61-2.09-5.19-15.13-18.12-19.4-23.97-13.07-17.88-24.84-36.73-35.64-56.07-5.33-9.55-11.45-29.22-21.23-33.3-7.11-2.96-15.83-4.09-23.62-7.37-60.17-25.34-73.44-106.17-25.6-150.41,6.3-5.82,18.58-11.57,21.16-19.74,2.54-8.05,1.38-22.99,2.41-32.28,3.69-33.22,10.38-66.05,19.74-98.08.66-9.19-13.68-25.91-17.87-36.4-21.8-54.66,13.83-115.87,72-123.76,10.79-1.46,21.12,1.07,30.86-.11,10.03-1.22,21.97-18.72,29.68-26.09,17.36-16.58,36.17-31.84,55.31-46.3,7.47-5.64,24.55-13.94,26.6-22.97,1.27-5.58.94-12.69,2.14-18.93,13.75-71.52,92.11-97.8,148.92-52.99,11.76,9.28,8.79,14.3,27.29,13.58,31.01-1.2,59.81-5.1,91.76-3.75,9.7.41,23.27,3.84,32.23,3.6,5.94-.16,24.71-19.88,32.13-24.65,49.41-31.71,116.37-6.09,134.53,48.94,3.63,10.98,2.03,17.67,3.95,27.03,2.28,11.11,24.8,24.47,33.77,31.91,25.03,20.77,49.08,42.68,74.13,63.42,8.05,4.19,25.68.11,36.23.95,61.82,4.89,97.65,73.79,72.27,129.36-3.48,7.63-10.08,14.34-12.85,20.61-4.66,10.56,4.69,30.49,7.46,42.14,4.91,20.71,8.78,41.62,11.61,62.74,1.38,10.28.75,24.49,3.21,33.97,1.99,7.66,14.56,13.86,20.51,19.15,49.78,44.27,38.98,126.99-23.58,152.42-9.2,3.74-23.71,4.71-29.71,12.42-5.43,6.97-11.83,25.99-16.71,35.34-7.84,15.02-17.16,29.88-26.9,43.74-6.1,8.68-17.61,20.3-22.11,28.7-5.34,9.96.62,14.77,3.13,24.2,20.37,76.6-54.43,141.89-126.24,107.66-10.98-5.24-22.89-17.78-35.53-15.39-15.91,3.01-34.36,13.5-50.74,16.78ZM736.02,147.04c0-45.38-36.79-82.17-82.17-82.17s-82.17,36.79-82.17,82.17,36.79,82.17,82.17,82.17,82.17-36.79,82.17-82.17ZM444.76,149.4c0-45.37-36.78-82.15-82.15-82.15s-82.15,36.78-82.15,82.15,36.78,82.15,82.15,82.15,82.15-36.78,82.15-82.15ZM960.52,332.51c0-45.37-36.78-82.16-82.16-82.16s-82.16,36.78-82.16,82.16,36.78,82.16,82.16,82.16,82.16-36.78,82.16-82.16ZM223.21,338.39c0-45.38-36.79-82.18-82.18-82.18s-82.18,36.79-82.18,82.18,36.79,82.18,82.18,82.18,82.18-36.79,82.18-82.18ZM1013.34,618.91c0-45.35-36.77-82.12-82.12-82.12s-82.12,36.77-82.12,82.12,36.77,82.12,82.12,82.12,82.12-36.77,82.12-82.12ZM174.81,625.68c0-45.38-36.78-82.16-82.16-82.16s-82.16,36.78-82.16,82.16,36.78,82.16,82.16,82.16,82.16-36.78,82.16-82.16ZM869.87,872.37c0-45.39-36.79-82.18-82.18-82.18s-82.18,36.79-82.18,82.18,36.79,82.18,82.18,82.18,82.18-36.79,82.18-82.18ZM322.47,876.83c0-45.39-36.8-82.19-82.19-82.19s-82.19,36.8-82.19,82.19,36.8,82.19,82.19,82.19,82.19-36.8,82.19-82.19Z"/>
    <g>
        <path d="M105.32,330.3c29.74-3.63,40.82,32.91,21.55,52.56,15.91,20.15,44.27,15.2,65.47,7.21-25.53,30.15-82.6,31.2-106.55-1.23-15.82-21.43-9.73-54.97,19.53-58.54Z"/>
        <path d="M110.57,305.19c-15.45,3.8-28.48,16.74-35.56,30.73l-6.55,18.84c-8.49-33.95,12.73-72.23,45.51-83.96,27.59-9.88,57.94,5.26,53.29,37.18s-53.25,28.31-56.69-2.78Z"/>
        <path d="M163.86,271.75c43.45,7.72,69.64,78.56,32.11,107.07-16.82,12.78-35.39,10.91-47.52-6.79-13.62-19.86,4.97-43.27,27.2-43.38,3.26-.02,8.94,3.35,10.3-.75,7.01-21.21-11.1-40.2-22.09-56.15Z"/>
    </g>
    <g>
        <path d="M917.53,665.6c19.42,14.51,39.45,14.66,61.71,7.01-32.08,39.81-119.61,18.63-111.18-38.08,5.36-36.03,69.71-30.93,57.85,13.23-2.06,7.68-8.34,11.03-8.38,17.83Z"/>
        <path d="M950.13,549.35c34.72,10.37,60.12,45.32,53.61,82.07-4.01,22.62-26.79,41.88-49.93,33.21-31.34-11.74-23.26-55.78,13.74-55.88,3.83-.01,8.26,3.57,9.24-1.81,2.54-13.91-3.81-31.27-12.42-42.09-4.3-5.41-10.92-9.24-14.24-15.49Z"/>
        <path d="M860.29,633.58l-2.31-10.67c-1.92-33.68,19.79-66.29,53.12-74.22,24.71-5.87,50.78,11.06,46.99,38.32-3.6,25.89-36.72,31.92-51.93,11.26-2.25-3.06-5.3-13.1-7.83-12.87-1.22.11-8.89,4.46-10.66,5.53-15,9.06-24.74,25.35-27.38,42.65Z"/>
    </g>
    <g>
        <path d="M620.83,136.99c15.33-.6,29.71,14.65,28.82,29.99-.44,7.56-9.51,22.39-8.54,25.81.77,2.7,10.51,7.76,13.49,8.91,16.33,6.3,32.31,2.63,48.29-2.47-31.88,40.63-120.64,20.7-112.64-37.06,1.82-13.13,17.84-24.69,30.57-25.18Z"/>
        <path d="M581.49,162.68c-9.62-37.92,20.59-87.1,61.29-88.05,25.75-.6,46.06,23.6,34.73,48.4-8.86,19.42-36.96,19.54-48.94,3.1-2.37-3.25-4.82-13.14-7.83-12.85-.95.09-10.81,5.25-12.4,6.26-16.21,10.32-18.55,22.22-24.22,38.98-.55,1.63-.36,3.78-2.63,4.17Z"/>
        <path d="M699.07,135.29c3.5-23.43-8.86-41.34-24.65-56.86,34.98,6.87,56.66,45.34,51.72,79.59-3.1,21.47-27.03,42.22-48.98,34.75-21.18-7.21-28.25-35.99-9.56-49.92,10.2-7.6,19.91-5.23,31.46-7.57Z"/>
    </g>
    <g>
        <path d="M140.31,679.44c2.23,2.01-9.47,10.1-10.77,10.9-22.74,13.94-53.92,12.68-76.37-1.21-23.33-14.44-35.4-57.67-4.17-69.4,33.98-12.76,53.59,25.03,30.91,49.16,13.62,20.28,39.87,16.34,60.4,10.55Z"/>
        <path d="M117.39,555.54c1.16-.04,17.24,10.83,19.61,12.59,22.74,16.89,32.18,38.59,29.2,67.16-2.72,26.04-32.56,50.47-56.23,32.99-24-17.72-12.29-51.09,16.32-52.81,3.09-.19,11.25,2.93,12.63-1.26,1.71-15.19-.85-26.27-9.23-38.75-3.37-5.01-11.3-11.95-13.54-16.2-.97-1.85.33-3.67,1.25-3.71Z"/>
        <path d="M63.37,592.8c-22.96,3.98-37.04,27.61-40.16,49.45-4.03-9.19-3.27-21.33-1.32-31.04,6.04-30.07,34.46-60.04,66.98-56.92,12.96,1.24,29.5,13.28,31.53,26.71,6.41,42.35-47.37,49.89-57.04,11.8Z"/>
    </g>
    <path d="M142.18,678.2c.8.41.8.83,0,1.24v-1.24Z"/>
    <g>
        <path d="M837.99,924.8c2.51,2.3-13.3,13.22-14.96,14.14-23.05,12.76-54.83,10.81-76.65-3.7-21.53-14.31-32.8-54.38-4.08-67.12,25.2-11.18,48.98,8.36,40.52,34.33-1.6,4.91-10.24,13.96-6.77,17.99,1.27,1.48,10.09,6.46,12.39,7.43,17.48,7.36,32.67,3.73,49.54-3.07Z"/>
        <path d="M834.28,864.08c1.73-17.35-2.4-32.11-13.12-45.75-3.78-4.8-9.47-8.16-12.3-13.71,45.5,7.61,77.2,86.49,31.2,111.71-29.8,16.34-62.54-14.76-41.69-41.69,9.8-12.66,21.16-12.43,35.91-10.56Z"/>
        <path d="M719.02,888.86c-2.18-.38-2.15-2.49-2.65-4.15-11.28-37.37,27.37-85.71,66.53-82.64,24.45,1.92,40.67,26.23,29.33,49.24-8.23,16.68-32.99,17.92-45.35,5.19-3.92-4.04-6.61-12.67-8.81-14.75-3.22-3.05-14.6,4.46-17.86,6.94-11.94,9.07-20.59,25.15-21.19,40.17Z"/>
    </g>
    <g>
        <path d="M292.73,927.29l-20.66,15.88c-26.42,14.29-71.01,7.57-87.39-18.74-10.91-17.54-13.25-42.61,8.08-53.14,33.93-16.74,57.85,23.21,33.15,48.1,15.4,21.43,45.3,14.4,66.82,7.9Z"/>
        <path d="M209.66,843.04c-15.62,3.49-28.2,15.87-34.47,30.5l-6.36,19.02c-10.44-36.15,17.95-84.23,56.38-87.96,25.61-2.49,48.92,18.06,40.63,44.35-9.24,29.33-50.83,22.42-56.18-5.91Z"/>
        <path d="M285.31,866.56c3.13-15.6-2.23-32.08-11.88-44.51l-12.28-13.75c36.61,7.7,55.92,45.2,51.09,80.86-2.82,20.87-28.1,41.34-48.9,33.43-19.04-7.24-26.8-31.79-12.03-47.27,2.28-2.39,12.05-8.77,14.78-8.77h19.21Z"/>
    </g>
    <g>
        <path d="M325.9,141.95c23.82-3.39,39.27,19.43,29.9,41.05-1.36,3.14-6.9,9.29-7.13,11.51-.34,3.3,12.83,9.77,15.96,10.92,16.23,5.99,32.55,3.44,47.71-4.3-.44,4.1-4.64,7.25-7.66,9.67-31.81,25.49-94.16,15.37-104.13-28.04-4.51-19.61,4.29-37.82,25.35-40.82Z"/>
        <path d="M407.98,141.63c6.37-24.63-10.2-41.51-23.54-59.48,37.81,8.64,62.74,56.51,47.11,92.32-10.66,24.41-43.78,33.46-60.73,9.89-16.93-23.53,11.77-52.28,37.17-42.74Z"/>
        <path d="M332.35,116.87c-23.74,6.83-33.28,23.27-38.72,46.1-.29,1.23-.38,3.73-2.11,3.43-14.94-42.24,34.16-105.14,79.27-83.61,8.74,4.17,17.14,13.79,18.51,23.63,5.91,42.6-47.62,48.56-56.94,10.46Z"/>
    </g>
    <g>
        <path d="M901.8,261.85c26.64,9.09,45.01,30.04,49.89,57.91,4.3,24.58-4.04,49.59-29.46,57.89-28.9,9.43-53.56-27.84-30.32-48.91,11.31-10.25,18.19-5.29,29.74-7.44,3.56-.66,4.3-9.47,4.21-12.88-.47-17.29-16.57-32.12-24.05-46.58Z"/>
        <path d="M849.13,297.75c-26.36,5.5-30.23,24.62-39.52,45.35-.66,1.47.58,2.24-2.59,1.75-10.34-39.72,27.24-91.4,69.69-85.18,12.79,1.87,27.84,14.31,29.48,27.53,5.23,42.32-47.96,48.5-57.05,10.56Z"/>
        <path d="M927.22,384.52c-28.82,36.86-106.22,23.02-111.39-26.78-4.83-46.55,68.65-47.25,58.79.82-1.38,6.72-8.37,12.55-9.22,15.67-1.18,4.35,11.53,10.33,15.12,11.74,15.93,6.26,30.95,3.73,46.69-1.45Z"/>
    </g>
</svg>
