<svg fill="currentColor" xmlns="http://www.w3.org/2000/svg" viewBox="0 0 1024 1024">
    <path d="M210.85,597.37c-.26.02-1-1.18-2.24-.74l-13.41,11.94,13.41,15.62c-23.12-2.74-49.69-.92-67.87-17.8-2.57-6.42-13-11.17-15.19-16.11-8.65-19.51,10.22-41.12,11.41-60.94.76-12.7-7.2-11.11-14.06-18.37-16.7-17.69-4.29-32.94-5.67-51.25-.5-6.57-25.41-50.68-30.55-60.06-9.04-16.48-19.25-32.58-28.56-48.93l34.29,8.93-38.75-173.58,68.52,117.71c.07-39.77,11.58-81.49,27.63-117.67.95-2.15,12.77-27.19,14.09-25.38l1.52,29.04,4.44,21.62c12.99-47.24,38.32-90.41,70.81-126.65-.33,16.14-7.32,33.41-8.18,49.95-.16,3.14-1.32,6.08,2.94,5.18,19.71-46.62,59.01-83.45,102.13-108.76,2.03-.48,2.82.13,2.19,2.19-1.68,5.44-10.87,17.56-14.08,24.67-2.54,5.61-6.82,15.94-8.17,21.65-.46,1.93.25,2.96,2.13,2.13,2.72-1.21,9.02-8.12,11.98-10.38,21.14-16.11,43.15-30.15,68.52-38.77,2.06.84.11,2.82-.44,4.03-3.32,7.16-9.26,14.07-13.01,21.27-1.16,2.24-4.48,6.59-2.96,8.96,61.07-43.75,139.6-58.25,213.85-56.61l-46.06,24.7c-12.75,9.08-26.95,17.19-37.38,28.92,102.37-38.48,212.48-14.36,308.47,29.84-.23,2.38-6.42,2.8-8.2,2.94-19.53,1.54-40.56.69-59.66,5.9-2.04.56-4.62.2-5.14,3.04,34.72,6.56,68.32,17.13,99.35,34.04,7.1,3.86,22.07,12.06,27.33,17.37,3.16,3.19.69,2.26-1.72,1.72-15.92-3.53-31.91-7.33-48.25-8.39-3.02-.2-7.85-1.53-6.68,2.94,56.5,24.07,107.86,68.51,142.78,118.77,7.71,11.1,26.37,40.15,30.06,51.91.24.76.41,2.43-.72,2.2-20.94-17.19-44.48-33.13-70.78-40.99-1.55-.46-5.02-1.77-5.97,0,45.16,52.31,74.01,118.71,85.95,186.76,7.54,42.92,9.76,96.27,1.51,139.17-.32,1.65-.3,5.91-2.52,5.65-3.93-16.76-9.09-36.63-19.37-50.66,2.13,73.82-11.34,146.05-42.97,212.62-6.04,12.71-20.22,42.16-28.58,51.89-.78.9-1.73,2.23-2.96,2.24,1.61-19.08,5.91-38.23,7.42-57.4.13-1.63,1.19-6.94-1.45-6.67-18.03,46.41-42.96,90.29-75.28,128.14l4.49-35.75c-44.6,59.66-105.89,108.1-175.13,136.33-5.71,2.33-13.27,5.55-19.35,5.99l23.56-28.6,14.42-24.33c-38.61,23.23-78.85,43.5-122.15,56.67-9.21,2.8-20,6.51-29.08,6.68,14.57-15.06,32.36-26.83,44.7-43.95-57.31,27.32-119.82,43.35-183.31,29.06l-40.21-14.16c11.7,1.47,23.28,4.69,35.02,5.93,24.39,2.58,64.29,2.96,85.71-9.69,1.92-1.14,3.76.27,2.93-3.7-48.29,4.33-99.47-1.3-146.35-13.84-50.83-13.6-94.55-38.3-138.26-66.65-.34-2.72,3.18-1.29,4.79-1.07,27.33,3.71,54.91,13.42,83.12,11.51-47.74-42.05-82.22-94.76-113.24-149.78l.72-2.2c25.81,20.74,56.59,34.96,80.5,58.1,3.95.29,1.5-.64,1.05-2.54-12.68-53.46-53.06-77.63-104.36-87.88-5.19-1.04-26.58-4.92-30.09-4.24-4.7.92.11,2.24.24,2.41,6.66,8.67,15.17,16.03,23.61,22.97.22,1.15-1.36.89-2.23.75-8.16-1.24-26.03-9.57-34.53-13.17-8.72-3.69-17.32-8-25.8-12.18-1.41,1.51,10.76,15.79,12.63,17.9,33.24,37.58,77.53,68.91,121.46,92.39l-11.18,2.95c-14.79.48-29.46.05-43.94-2.96-.67,2.58,1.07,2.98,2.22,4.47,14.74,19.2,39.89,35.85,60.36,48.43-5.27.97-12.39-2.81-17.39-4.96-36.33-15.64-65.8-44.76-91.38-74.03-.23-1.12,1.44-.96,2.2-.72,14.66,4.63,30.39,15.26,46.96,12.65-52.52-36.03-96.8-81.41-128.13-137.14-.59-1.91.32-2.93,2.19-2.19,3.2,1.27,10.05,7.88,13.7,10.15,4.04,2.52,34.59,21,36.25,19.62-21.43-25.57-37.52-54.77-46.18-87.18l17.85,5.99c-35.79-68.56-43.55-146.45-23.82-221.3l4.7,43.71c15.22,83.78,54.11,168.81,118.96,225.28-1.38,2.39-3.34-.56-4.61-1.35-37.47-23.35-64.59-54.51-85.57-93.26l-29.01-68.57c2.24,40.07,16.96,79.5,34.47,115.27,3.3,6.75,12.98,20.09,14.67,25.57.64,2.06-.16,2.66-2.18,2.18l-19.51-8.83c-2.03-.59-2.71.11-2.1,2.11,2.13,7.01,14.32,26.39,19,33.16,2.63,3.81,15.42,20.66,18.27,22.08l2.94.08c79.66-38.91,185.47-45.4,251.91,22.12,10.3,10.47,17.84,23.54,26.74,35.09,2.42-28.99-10.21-51.07-24.72-74.36-.79-1.27-3.74-3.23-1.35-4.61,37.31,18.89,71.54,48.74,84.6,89.76,9.73,30.57,1.91,65.03,36.85,81.61-2.66-13.57-6.62-27.03-7.5-40.93-.1-1.61-.95-5.65,1.53-5.25.09,1.69,1.08,3.29,2.19,4.51,36.01,39.69,85.75,66.75,139.39,72.98-.92,2.11-7.53,2.41-9.88,2.76-42.43,6.29-79.58-14.58-111.57-40.02l11.18,34.25c-27.89-10.15-61.19-29.74-67.88-61.01-7.07-33.04-3.14-49.21-25.38-78.93-1.69-2.26-15.17-17.53-16.29-18-3.01-1.24-2.22,1.82-1.9,3.39,5.52,27.55,5.32,49.73.94,77.57-.38,2.44-.55,8.97-2.72,9.92-15.17-51.15-49.22-97.45-101.35-114.72,5.41,6.31,13.32,10.17,19.39,15.62,27.87,24.99,42.91,61.69,43.18,99.12-8.17-5.62-13.9-14.85-21.62-20.84-1.42-1.1-4.96-4.38-6.67-2.27,13.04,44.11,29.87,82.02,70.14,107.19,5.55,3.47,14.57,9.7,20.74,9.06-28.2-21.42-40.33-55.9-47.69-89.41l24.85,21.34c4.31,2.4,23.35,16.61,27.32,13.65-11.41-19.46-13.86-42.23-8.93-64.06l6.37,30.12c32.38,103.67,183.33,108.5,256.99,50.78,1.21-.95,2.75.04,1.88-3.4-34.53,1.43-69.15-3.79-100.84-17.63l-25.81-13.66c33.56,1.34,66.82-2.11,99.85-7.47l-.93-4.58c-10.43-4.19-20.6-10.09-28.88-17.76,29.55-2.86,57.4-8.29,84.46-20.61,15.09-6.87,15.73-8.55,33.29-12.91,3.84-.95,6.63-3.4,10.4-3.74-22.11,23.75-53.84,40.92-86.43,44.7-.73,3.49.44,2.39,1.92,3.34,7.12,4.55,17.72,8.14,24.12,13.07,1.36,1.05.58,1.45-.73,2.18-7.33,4.09-26.42,7.35-35.45,9.25-10.86,2.3-21.97,4.82-33.07,4.95.52,2.85,3.1,2.47,5.15,3.03,18.05,4.97,52.89,6.05,71.22,2.53,14.59-2.8,32.3-23.88,42.13-35.36,31.09-36.31,53.17-79.95,64.23-126.57l-1.64-3.06c-3.63,2.8-9.59,1.8-13.12,3.25-4.29,1.77-6.58,17.61-8.46,22.83-7.99,22.18-12.21,36.54-36.14,44.33-49.46,16.09-89.61-10.85-137.5-6.36-22.65,2.12-31.63,16.52-15.64,34.96,1.11,1.29,14.79,11.21,8.16,11.21h-23.84c-4.82,0-17.66-10.82-20.9-14.86-4.9-6.12-6.61-12.85-10.39-19.38-10.33,11.77-5.95,27.72-5.95,41.69-18.63-16.14-30.11-38.97-24.6-64.07-12.75,5.16-14.43,22.27-15.63,34.26-11.75-14.5-15.89-33.94-10.11-51.82,7.79-24.1,38.54-38.21,58.15-52.23,4.56-.65,12.77,6.34,17.74,8.47,32.59,13.95,67.65,16.76,101.71,6.02.61-6.11-.04-16.7-4.26-21.51-4.68-5.33-28.29-13.94-37.18-20.94-3.61-2.84-9.14-8.27-12.01-11.83-6.61-8.21-5.87-15.06-18.59-18.66-6.33-1.79-20.67-3.7-24.66,1.55l16.38,5.22c-5.2,5-14.31,4.24-17.88,11.17,18.6-2.07,32.65,8.24,38.75,25.33-15.39-3.35-27.98-2.62-36.53,11.93-3.24.62-2.26-1.5-2.27-3.75-.03-8.03,4.91-13.12,7.5-20.08-13.29-.82-26.35,4.79-37.23,11.91-.97-1.25,3.99-12.79,5.14-14.96,3.33-6.32,8.65-10.09,11.23-16.32l-26.8,8.2c11.63-32.49,55.42-46.88,83.94-27.33,7.93,5.44,7.56,10.97,12.27,17.54,7.84,10.93,21.7,16.74,33.43,22.44-9.03-28.88-22.69-56.82-13.41-87.91-1.02-1.04-15.36,8.67-17.46,10.09-3.9,2.65-15.21,12.68-17.57,13.73-1.86.82-2.6-.16-2.13-2.13,2.15-9.09,9.29-25.44,13.51-34.19,17.47-36.2,50.86-70.68,84.75-91.83,1.17,1.44-12.16,30.42-8.19,35.76,6.88-11.01,28.37-15.82,33.84-25.77,9.3-16.91,6.68-43-2.05-59.65-12.1-23.09-42.97-41.77-69.16-36.89l-30.42,43.33,47.67-8.2c-28.32,28.98-60.79,56.49-95.86,77.01-15.23,8.92-33.29,15.82-47.65,25.37-19.44,12.93-11.98,19.21-16.35,38.79-3.79,16.98-13.54,23.65-23.4,36.21-.32,10.25-.6,19.12,2.2,29.03,2.7,9.57,9.12,16.37,12.66,25.32-20.85-2.13-40.29-12.4-49.44-31.76-3-6.35-3.77-13.21-5.84-19.49-.54-1.65-.46-3.61-2.82-3.87-6.16,15.9-10.89,27.54-8.8,45.29l6.55,21.76c-31.74-20.18-43.65-49.14-36.53-86.43-7.87,5.11-12.22,13.63-16.16,21.82l-7.65,25.86c-6.62-17.7-12.32-33.51-10.51-52.95,1.82-19.58,18.55-34.94,27.64-51.33,3.99-3.36,14.39.59,20.87-.01,38.83-3.62,67.39-68.91,87.17-96.86-2.31-2.16-7.92,7.42-9.62,9-28.79,26.78-63.04,29.57-99.52,18.09-12.48,8.81-50.25,29.99-54.77,43.72-.32.96-.3,2.52.72,2.2l51.42-20.84c-12.35,18-26.97,34.52-38.46,53.17-12.6,20.45-38.3,63.03-9.28,79.57l-13.36,28.17c1.15,1.55,23.5,6.07,27.5,7.54,1.59.58,3.57.67,3.79,2.9-19.5,9.06-36.73,24.31-59.04,26.66-25.06,2.64-57.73-7.8-67.61-32.6,14.95,4.42,30.76-.01,44.69-5.98l-23.83-20.12,20.92-7.67c-.14-6.2.37-12.3-.74-18.46-4.09-22.57-24.88-32.14-13.47-61.02,2.01-5.09,6.97-8.26,8.17-13.42-6.97-1.81-24.07,2.67-27.55,8.94-3.84,6.92,4.87,29.4,2.04,32.61-4.92.75-22.61,10.65-23.94,14.16-.86,2.28-2.57,12.26-2.06,14.38l23.19,34.97c-1.19,2.45-4.4-.75-5.21-.75-9.24,0-19.2-.54-28.31,0ZM301.01,121.98v-23.1l9.69-39.48c-43.42,36.91-70,90.99-87.2,144.53-2.11-.92-2.41-7.53-2.76-9.88-2.76-18.68-3.31-36.91-1.71-55.68-26.95,39.6-42.78,87.6-47.66,135.6,1.4,1.6,6.34-4.01,7.48-5.17,4.81-4.92,9.98-13.6,14.82-17.97,1.48-1.33,2.09-2.75,4.52-2.17-3.68,26.6-6.68,53.66-5.22,80.45l35.04-105.8,20.83,26.82,38.01-144.54c2.53,1.73,2.09,4.04,2.32,6.62,3.51,39,9.3,78.64,10.41,117.75.82,28.89-4.82,51.94-10.48,79.79,8.4-8.86,19.4-14.98,28.32-23.08,5.71-5.19,9.82-11.47,14.84-16.45,12.83-12.73,25.34-25.86,38.77-37.96-4.15,19.57-9.79,38.88-11.89,58.88-2.72,26-.61,52.27-4.47,78.22,10.01-3.66,20.33-8.18,31.28-7.46-16.5-46.84.25-99.57,40.22-128.15,1.19,1.24-8.75,12.31-10.13,14.44-45.55,70.09-22.98,171.24,76.85,143.91,15.5-4.24,30.55-12.45,46.23-16.36,9.57-2.38,18.95-3.36,28.62-4.89.83,3.97-1,2.57-2.93,3.7-8.21,4.84-17.55,7.72-25.24,13.56-39.51,30.02-67.22,123.46-121.79,125.72-4.25.18-8.95-2.84-12.45-.68-1.56.96-18.84,27.39-20.12,30.57-1.37,3.39-3.46,8.45-1.5,11.91,4.45-4.33,18.63-21.04,23.15-23.05,6.82-3.03,18.55-2.71,27.35-6.92,6.61-3.16,11.56-8.94,17.3-13.23-2.95,17.91-17.2,26.65-31.79,34.61-2.37,15.14-6.6,30.93-1.98,46.18.83,2.73.17,4.99,3.97,4.16.02-4.07.97-8.05,2.31-11.86,7.93-22.51,14.35-29.98,33.5-43.99l11.87-17.16c.85,6.6-1.06,12.22-3.32,18.26-1.79,4.76-9.96,15.53-10.08,16.77-.61,6.42,7.36,35.35,11.92,40.22,1.4,1.5,2.07,2.73,4.47,2.23v-30.55c0-10.03,21.44-19.52,23.72-35.89,4.31-31.01,6.89-39.18,26.98-63.92,2.37-2.92,14.45-13.98,14.86-14.95,1.24-2.93-2.21-2.37-3.71-2.23-7.68.72-17.86,5.37-25.64,7.17-1.93.45-4.49.99-3.41-1.92.93-2.48,12.93-17.13,15.61-20.16,20.96-23.76,63.92-47.29,76.59-73.93.98-2.07,5.51-12.49.93-12.49h-25.33c-6.22,0-25.83-10.63-31.26-14.94-16.73-13.25-24.44-35.92-42.32-47.09-49.13-30.7-94.06,35.26-57.53,66.47,15.91,13.59,43.34,9.81,48.86-12.16,7.41-29.48-35.12-43.14-37.74-10.17-2.13-.33-4-7.05-4.15-8.54-1.23-12.42,14.08-23.46,25.73-22.81,30.95,1.71,41.18,43.17,19.48,64.21-23.97,23.24-63.22,10.51-75.1-18.91-19.86-49.18,32.61-96.47,80.67-74.71,18.22,8.25,25.12,26.88,42.79,35.43-3.85-12.67-3.89-26.13-1.08-39.11.31-1.44.53-4.47,2.57-4.1.05,28.92,16.14,52.55,46.2,55.15-.26,2.17-6.5,2.52-8.37,2.78-12.2,1.68-23.69.49-35.56-2.81-1.49.09-.89,1.86-.06,3.04.53.76,10.79,9.24,12.21,10.14,15.74,10.04,37.88,12.92,55.63,7.7-2.82,10.8-6.5,21.6-13.44,30.51-1.23,1.58-9.39,10.02-10.36,10.4-1.47.58-3.86-1.03-4.39-.65-.36.26-1.5,5.86-3.09,8.19-5.86,8.59-21.22,20.42-29.09,29.02-5.4,5.91-10.36,12.6-15.62,18.66l37.25-3.72-38.73,40.99c-.45,2.04.1,2.82,2.19,2.19,6.03-1.8,25.81-14.12,32.52-18.16,18.94-11.4,36.82-24.32,53.19-39.2h-40.22c29.84-26,57.91-60.07,72.66-97.21,2.75-6.91,6.64-15.42,5.57-22.74-13.55,11.6-29.18,23.16-46.94,26.81l7.43-29.8c-44.14,27.11-78.6-19.39-29.82-45.48,34.26-18.32,90.64-25.57,128.91-21.56,16.91,1.77,33.5,6.42,49.94,10.43.93,3.45-.83,2.48-1.89,3.39-2.25,1.94-29.7,21.63-27.91,23.39,30.27,2.02,60.19,4.89,89.41,13.41l-41.66-29.11-1.55-3.64c13.12-7.1,30.1-12.05,42.8-19.05,1.71-.94,2.52.09,1.9-3.31-90.75-34.09-191.7-24.4-279.68,13.13-14.89,6.35-29.16,14.07-43.69,21.12,6.88-21.48,15.97-42.19,23.88-63.29.51-1.36,4.58-9.53.73-8.21-5.97,2.04-18.49,10.48-24.49,14.26-29.21,18.4-57.23,40.85-80.58,66.19,2.7-10.62,11.06-21.8,17.91-30.51,16.82-21.37,43.14-41.81,66.56-55.63,8.38-4.94,41.34-22.86,48.88-24.15,1.07-.18,2.57-.29,2.23.75l-28.3,70.79c76.34-34.1,163.85-49.73,245.87-26.82,1.9-1.81-11.85-14.04-9.69-17.87l96.12,43.96-49.75,19.99-.97,3.79c24.63,16.38,48.1,36.94,67.12,59.65,1.4,1.67,3.62,2.42,2.96,5.22-57.32-29.25-120.62-39.06-184.77-35.78l35.76-33.49c-1.4-2.35-3.07-1.89-5.21-2.26-37.42-6.53-105.04-9.94-136.85,13.67-22.12,16.41-16.14,40.1,12.83,27.73l30.87-20.53c2.21,2.59-3.61,25.9-4.12,30.9-.14,1.41-1.26,4.69,1.87,3.36,2.8-1.19,19.71-15.48,23.14-18.59,8.49-7.71,15.34-16.94,23.81-24.61-2.08,21.17-6.16,42.61-13.4,62.58,31.69-8.17,65.31-3.96,93.87,11.93-5.39-14.5-17.06-25.59-28.3-35.75,59.38,2.46,104.68,48.58,108.79,107.27,2.66.59,2.94-.79,4.22-2.47,2.34-3.08,6.23-11.29,8.47-15.37,8.43-15.34,15.51-31.62,22.31-47.71,29.15,75.58,4.06,174.42-75.23,207.13-.66-2.81,1.57-3.54,2.97-5.22,5.37-6.42,14.29-11.36,20.11-17.15,35.34-35.09,56.02-90.23,48.43-140.07l-32.01,49.19-11.19,10.41c2.82-44.96-9.42-100.33-54.09-121.02-1.21-.56-3.19-2.5-4.03-.44,10.19,15.99,17.96,35.53,20.84,54.4-27.17-34.25-77.2-53.16-120.15-41.92-8.51,2.23-13.92,3.61-15.44,13.6,54.28,5.22,83.21,42.4,80.44,96.11-.14,2.78-4.29,12.17-.69,12.69,11.4-3.25,19.58-15.33,22.99-26.16,7.71-24.54-.53-44.88-19.28-61.03-2.92-2.51-7.02-3.81-8.95-6.68,14.2,2,26.57,11.39,34,23.35,13,20.91,9.73,41.55.27,63.06,17.39-7.49,23.59-31.63,22.36-49.16l7.48,23.17c-1.36,42.91-33.48,38.85-63.42,49.8-26.74,9.78-47.49,26.15-65.54,47.72l1.5-34.26c-6.76,7.44-15.06,14.05-21.58,21.64-4.4,5.13-19.24,24.49-20.88,29.79-.64,2.06.16,2.67,2.18,2.18l26.09-11.9c-3.25,10.9-9.04,22.27-10.23,33.71-4,38.28,12.29,59.24,20.57,93.81,1.17,4.9,7.15,32,4.68,34.16-31.07,13.31-65.28,15.26-97.91,6.91-13.09-3.35-23.85-10.11-36.71-13.32-16.65,13.31-40.12,21.68-45.81,44.41,19.15-7.52,33.26-29.73,55.14-26.79-6.04,7.78-16.9,11.76-21.98,20.48-6.28,10.77-7.02,23.98-6.32,36.14l31.4-37.88c5.96-2.83,16.42-7.35,20.74-.89-27.29,9.37-27.73,34.82-11.16,55.15,4.45,2.19.8-9.58.86-11.03,1.26-31.34,42.3-30.52,64.68-29.18,28.1,1.68,55.06,12.72,83.44,10.39,4.58-.38,19.96-2.99,23.55-4.76,1.6-.79,2.77-1.22,2.57-3.34-18.77-32.87-6.76-78.76,29.81-92.43,12.26-4.59,26.25-5.22,38.73-8.96,5.73-1.72,10.79-4.76,16.38-6.7-17.41,24.52-55.79,22.18-72.14,47.8-10.62,16.64-9.17,32.53-2.76,50.22.42,1.14-.16,4.64,2.61,3.28,7.62-3.74,16.01-47.08,19.01-56.27,6.2-2.86,12.99-1.11,19.38-2.22,35.59-6.19,67.87-40.08,83.11-71.14l2.93.71c-10.28,46.77-21.9,93.4-41.66,137.15,2.47,3.05,1.65,1.74,3.69.77,16.11-7.66,31.58-21.5,47.69-29.84,1.06-.34.9,1.14.74,2.22-1.47,10.18-11.64,34.59-16.14,44.97-18.89,43.58-48.39,84.61-85.95,113.74-2.44-1.51.52-3.29,1.49-4.47,25.97-31.5,49.78-66.12,66.11-103.77,2.41-5.55,6.25-12.52,5.44-18.41-5.4,3.9-48.94,29.3-51.41,26.81,7.85-21.18,18.16-41.46,26-62.65,5.13-13.86,12.33-32.94,15.64-46.97.46-1.96-.17-2.9-2.13-2.12-7.37,2.91-19.86,18.03-30.19,19.74-17.53,98.35-88.44,189.26-182.21,225.36-16.14,6.21-32.63,9.4-48.67,16.9-32.97,15.43-59.11,41.59-86.92,64.32,47.47-9.79,89.86-33.68,131.87-56.63-2.07,6.14-6.74,12.47-10.55,17.77-8.78,12.23-19.01,23.84-28.92,35.17-.46,2.04.11,2.82,2.19,2.19,14.13-4.24,37.43-16.33,50.95-23.56,23.86-12.77,48.18-28.74,69.79-44.96,1.16,18.44-10.15,34.9-17.44,51.11-.54,1.19-2.56,3.13-.46,4.01,71.58-37.12,126.16-94.5,168.41-162.42l-2.23,32.78c7.98-8.47,14.54-20.73,20.13-31.26,17.73-33.39,31.2-70.93,40.96-107.32,2.31.76,2.95,6.86,3.47,9.18.88,3.93,1.78,8.64,2.29,12.61,1.45,11.29.09,25.7,1.74,35.51.3,1.76.88,3.53,2.9,3.79,32.22-78.98,47.18-167.2,29.83-251.85,13.34,10.62,20.77,26.73,30.4,40.41,1.25,1.77.05,3.65,3.85,2.79-2.62-36.8-.93-75.39-16.13-109.78-13.28-30.05-42.82-56.92-52.08-88-.39-1.32-1.3-4.59,1.17-2.66,11.7,15.6,23.91,31.24,38.72,43.98-20.78-53.78-53.02-99.84-96.85-137.09,27.24,1.45,55.31,8.71,79.74,20.84,1.11.24,1-1.53.72-2.2-3.32-7.97-21.58-28.55-28.26-35.83-42.15-45.93-97.66-79.4-157.27-97.57l9.39-4.04,34.57-6.38c-40.02-14.3-82.56-21.63-125.16-20.89l30.52-14.91c6.02-1.9,11.94-4.1,18.03-5.81,7.71-2.17,27.01-4.48,31.95-6.8.64-.3,1.86-1.86,1.46-2.24-72-24.91-149.29-35.47-223.85-14.49-17.28,4.86-36.55,11.84-50.35,23.4,26.34-6.12,52.41-13.64,79.66-14.96l14.22,1.55c-45.67,10.35-91.13,24.48-132.61,46.21,11.18-28.62,30.63-55.08,53.61-75.28,9.94-8.73,21.86-15.27,31.32-24.55-69.52,8.23-136.54,36.22-187.03,84.92l7.48-23.81c2.05-6.1,7.93-14.5,9.64-20.17.6-1.99-.19-2.78-2.18-2.18-4.22,1.26-25.93,18.94-30.6,23.06-11.67,10.3-21.61,22.74-32.76,33.55ZM281.64,421.52v30.55c0,.88-3.42,10.57-4.2,12.19-2.92,6.05-8.66,9.32-10.69,15.37,18.95.09,32.36,14.06,35.64,32.17,2.69,14.89,6.32,47.66,6.13,62.4-.04,3.04-2.08,15.44-3.8,17.19l-20.1,7.49,16.35,11.15c-3.3,6.33-9.27,12.22-15.57,15.7-5.18,2.86-11.78,3.29-15.68,7.39,21.02,9.16,39.4,6.35,59.6-2.99.76-3.48-.47-2.38-1.91-3.31-2.63-1.7-17.4-7.49-17.43-9.33,5.76-4.21,17.51-16.79,17.87-23.98.15-3.05-7.92-15.51-8.83-22.34-2.01-15.2,4.56-34.64,11.01-48.35,5.79-12.32,14.91-23.12,20.15-35.72-10.76,4.22-19.61,11.49-29.07,17.86-1.52,1.02-2.7,3.21-2.11-.61,4.68-30.27,17.8-58.6,31.2-85.79-19.52,7.58-32.65,21.53-45.76,36.84-.92,1.07.05,2.82-3.41,1.89l-1.48-42.45,9.68-60.36-30.27,39.77-19.66,45.16v-21.61c0-14.27,11.58-35.65,19.65-47.41,14.72-21.46,34.56-39.85,53.36-57.65-8.92,37.28-19.74,74.67-20.84,113.25,3.8,3.85,11.26-10.82,12.69-13.37,6.15-10.95,12.25-26.46,14.92-38.73,7.05-32.31,2.61-65.99,8.13-98.41-8.01,8.55-15.95,17.37-24.53,25.37-13.89,12.95-33.82,24.05-39.55,43.18l-21.6-16.36-15.62,86.39c-6.8-38.41-2.29-76.97,5.96-114.74,4.07,1.45,19.53,19.35,22.33,16.39,2.54-27.25,13.34-53.41,11.99-81.28l-4.55-49.85-26.83,99.83-22.32-29.8-46.22,147.54c-1.87,2.3-2.72-.02-2.98-2.21-1.96-16.68-3.91-36.95-4.53-53.61-.73-19.74,1.75-39.24,1.54-58.92l-23.81,26.82c.19-8.16-.33-16.4,0-24.57,1.08-26.98,6.12-43.55-.45-71.13-.35-1.48-.44-4.49-2.53-4.13-6.28,20.8-13.42,41.83-16.2,63.54-1.71,13.36-3.63,37.51-1.61,50.36,1.12,7.11,9.23,16.74,11.41,24.36,2.89,10.08,2.1,22.59,3.41,33.1,3.42.85,2.45-.62,3.41-1.87,4.94-6.41,8.14-15.29,15.22-20.47,1.12-.23.96,1.44.72,2.2-3.83,12.15-11.26,24.9-15.27,38.38-2.56,8.59-4.6,17.54-5.58,26.46l-5.94-33.55-2.98-2.21-12.04,93.16c-1.1,8.83,6,13.06,11.28,18.58l2.31-5.11,1.4-14.22c.97,8.39,7.72,16.48,8.82,24.7.82,6.15-.69,16.98-1.77,23.3-2.28,13.35-11.49,28.87-12.73,39.56-1.59,13.66,10.58,7.91,18.91,7.6,1.35-9.06,11.34-25.18,19.64-28.88,8.95-3.99,11.1,15.22,5.15,20.13l-2.97-5.95c-6.15,2.73-10.69,22.94-6.92,29.11l-2.06,2.15c-3.9-1.52-7.76-1.68-11.9-1.48-2.26.11-4.3-1.08-3.73,2.24.72,2.28,24.66,8.41,26.83,6.71l-.88-6.01c4.79-2.28,10.53-4.18,14.35-8.07,2.5-2.55,4.52-8.18,5.88-9.02,4.38-2.71,12.61,2.07,17.9.76-1.86-7.02-8.71-11.59-10.07-18.96-1.05-5.71.09-18.39,2.47-23.65,2.9-6.4,16.84-9.96,21.8-15.49,2.36-4.78-2.35-14.6-2.28-20.14.23-16.45,26.82-34.8,36.53-46.9,8.71-10.85,9.3-20.82,12.62-33.64.64-2.48-1.53-4.35,3.01-3.63ZM89.37,275.49l-2.93.71,25.33,102.86-.79,2.25c-6.21-1.6-13.1-5.17-19.42-5.94-2.35-.29-2.46-.26-2.14,2.16l32.75,55.92c1.32-25.89,6.33-51.47,11.91-76.69l-44.71-81.26ZM469.41,411.1c-25.72,2.44-48.49-7.57-67.11-24.55-2.85-2.6-5.85-8.52-8.04-9.84-12.12-7.32-53.2,9.84-49.29,28.41l36.51-16.38-25.3,50.67c9.32-5.03,34.01-28.22,43.57-26.58,3.9.67,11.41,5.44,17.21,6.77,13.47,3.09,27.39,2.31,40.53-1.8,3.2-1,9.84-3.9,11.93-6.68ZM286.12,583.95c10.48.23,7.95-16.92,7.51-24.64-.39-6.91-5.72-50.4-7.67-53.43-3.91-6.05-7.9,2.38-9.5,6.58-9.52,24.86,18.29,45.98,9.67,71.5ZM321.87,922.24h-55.14c5.03,5.31,14.02,8.27,20.88,11.16,35.22,14.8,81.06,26.46,119.12,29.92,1.99.18,3.54,2.17,3.04-1.56-49.8-21.65-95.03-60.1-117.97-110.04-22.7-49.41-16.93-100.48-69.9-132.77l-12.53-6.84c38.4,6.14,60.56,35.04,73.79,69.28,6.83,17.68,10.16,36.99,17.12,54.41,27.7,69.24,97.01,117.78,170.27,127.77,5.01.68,18.99,2.28,23.4,2,8.27-.53,16.02-12.67,22.43-17.94,7.49-6.15,16.72-12.93,24.68-18.54,1.66-1.17,17.51-8.85,14.76-11.3-9.76,1.74-20.4.99-30.36-.19-24.35-2.9-48.82-11.12-69.07-24.82-8.62-5.84-19.35-18.42-26.69-22.49-10.85-6.02-29.63-6.73-40.05-16.58-2.34,1.23.09,2.66.71,3.76,14.87,26.35,32.32,43.87,58.65,59.08l33.78,14.63c-34.23-.73-65.79-4.83-95.25-23.2-48.03-29.95-60.81-90.24-83.58-138.47l.75-2.23,29.06,14.89c-15.12-60.98-84.33-101.25-145.12-93.7-15.36,1.91-37.5,7.93-51.96,13.61-1.98.78-6.72,1.84-7.07,4.08,45.89,5.08,98.96,25.34,122.45,67.56,13.39,24.08,15.5,52.17,22.08,78.49-19.62-17.06-38.95-34.31-60.35-49.17l-.72,2.2c20.23,29.24,42.13,59.48,68.51,83.5,12.88,11.72,28.39,20.88,40.26,33.51Z"/>
    <path d="M62.59,446.85l19.34-20.86c2.29,40.31,9.67,80.13,19.37,119.21l-9.2-18.35c-8.13-21.78-15.72-43.78-20.61-66.58l-17.85,19.36c-6.82-38.42-8.64-77.19-7.45-116.23l7.87,47.99,8.52,35.45Z"/>
    <path d="M1011.84,393.2c-1.32,1.18-11.73-2.33-10.39,2.2,1.13,3.8,5.82,10.23,7.68,14.69,5.87,14.15,13.03,34.47,14.46,49.63.16,1.66,1.38,5.35-1.29,5.01-7.82-29.22-26.31-54.13-41.71-79.73l9.03-4.65-5.82-17.96-28.56-43.7c25.39,17.71,44.52,46.17,56.61,74.5Z"/>
    <path d="M43.19,664.43C15.82,637.66,7.74,599.15,0,563.1l12.2,22.8c1.9,5.69,13.03,15.58,14.29,19.98s-.34,9.99.33,14.57c2.31,15.78,10.64,29.44,16.36,43.97Z"/>
    <path d="M411.29,187.55l41.85-30.41c48.25-29.49,103.98-52.4,159.02-66.01,2.9-.72,39.71-9.19,39.05-7.15l-43.2,79.73c27.21-3.72,54.43-5.42,81.95-4.47.57-2.5-.81-3.01-2.26-4.43-1.83-1.8-30.58-22.7-29.03-23.86,50.84,5.08,101.44,19.27,144.54,46.93l-47.36-15.23-47.12-10.57-2.38,2.68,22.35,19.38c-49.36-4.02-99.14-1.47-147.53,8.95-.88-.8,4.22-10.12,5.18-11.95,10.04-19.14,26.02-42.21,33.9-61.48.59-1.45,2.37-4.64.39-5.57-85.69,23.12-174.91,56.81-230.2,129.67l21.6-116.23c-28.43,31.24-55.21,63.89-77.38,99.95l-18.73,32.66c18.34-70.63,65.95-130.58,122.94-174.34l-27.57,111.75Z"/>
    <path d="M903.07,643.55l49.18-30.53c-15.62,41.11-31.07,83.36-58.12,118.46l29.8-81.22-.75-2.22-42.47,26.81c13.18-47.14,22.63-95.3,22.33-144.54-4.06-.89-2.54,1.24-3.68,2.96-29.22,44.11-56.71,79.88-116.26,75.99-14.81-.97-29-6.65-43.89-.63-7.71,3.12.94-5.15,4.85-7.07,31-15.18,60.09,5.05,99.23-22.96,38.92-27.86,49.35-64.36,65.28-106.1.72-1.89.88-4.38,3.39-4.79,7.41,58.9,6.36,118.28-8.92,175.84Z"/>
    <path d="M818.11,478.16l-32.42,7.05c-41.03,11.13-80.13,36.21-97.22,76.38,22.04-7.42,44.5-13.04,67.83-14.88,1.6-.13,4.09-.9,3.68,1.46-27.81,18.4-47.86,48.6-59.65,79.69l-8.87,33.58c-4.17-34.06,7.07-66.38,26.81-93.86-1.28-1.03-27.21,9.95-30.81,11.64-7.88,3.71-14.86,8.77-22.83,12.18,10.39-76.37,79.77-118.89,153.48-113.23Z"/>
    <path d="M704.12,898.39c-2.52-.23-6.68-2.94-10.43-1.48l-.74-2.96c38.88-27.02,71.18-62.16,101.31-98.38-14.24,33.66-38.05,62-64.06,87.18,11.52,4.33,25.1,1.24,37.24,4.46-13.62,17-26.21,35.31-43.96,48.43-2.13-1.06.3-3.65.98-4.99,5.11-10.08,11.19-19.85,16.15-30.05.15-.47-3.48-2.21-3.7-2.21-10.38,0-22.73.92-32.78,0Z"/>
    <path d="M941.79,570.54l-5.93-27.58c-4.3-25.52,3.49-43.09,8.76-65.72,8.68-37.32-21.11-57.67-29.63-89.99,17.63,23.66,42.07,41.94,44.49,73.95,1.28,16.82-4.06,23.25-7.99,37.82-6.1,22.65-5.98,48.21-9.71,71.51Z"/>
    <path d="M770.42,625.7l-18.89,7.17c-34.95,18.85-41.88,61.12-33.26,97.13-28.56,5.98-55.34-8.17-83.44-10.44-.35-2.6,3.38-1.4,5.19-1.48,22.34-.91,42.86,2.08,64.85,2.98-9.6-45.55,12.17-99.56,65.56-95.36Z"/>
    <path d="M844.94,548.2c-15.46,17.82-39.3,25.3-62.58,25.3l23.72-12.77c3.91-.95,8.17-7.81,10.53-8.89,1.63-.74,4.39,2,6.84,2.26,8.78.94,13.72-3.68,21.5-5.91Z"/>
    <path d="M798.75,464.73l7.69-10.92,10.17-21.85c-.78,11.44-1.46,36.2-17.86,32.77Z"/>
    <path d="M159.44,475.91c1.58,11.23,14.11,26.54,21.21,10.77,3.9-8.67,3.91-26.52,7.92-38.28,5.05-14.84,22.21-35.65,24.17-47.36,2.54-15.19-2.99-31.26-1.12-46.58l9.66,25.34c12.31,29.52-10.6,49.28-19.75,74.11-3.6,9.77-4.31,18.7-6.32,28.69,20.21-5.83,19.17-20.47,20.79-38.06l11.99-18.56v40.98c0,12.91-25.3,25.28-31.94,35.12l-18.71,35.66,4.45-32.77c-8.19,2.37-10.48,4.7-18.37-.26-15.14-9.53-12.6-31.5-8.02-46.26.67-2.16,2-7.82,4.04-8.63.81,8.17-1.11,18.18,0,26.08Z"/>
</svg>
